<svg xmlns="http://www.w3.org/2000/svg" id="Слой_1" width="80mm" height="80mm" data-name="Слой 1" viewBox="0 0 226.77 226.77"><defs><style>.cls-1{fill:#3eff29}</style></defs><g><g><path d="M53.48,35V89.6h34.1V35H108v75H33V35Z" class="cls-1"/><path d="M33,120.42h75v20.47H81.59l23.87,23.87L91,179.23,80.76,169v26.46H60.3V169L50.07,179.23,35.6,164.76l23.87-23.87H33Z" class="cls-1"/><path d="M129.66,116.19l27.28,27.28,27.29-27.28,14.47,14.47-27.29,27.28,27.29,27.29-14.47,14.46-27.29-27.28-27.28,27.28-14.47-14.46,27.29-27.29-27.29-27.28Z" class="cls-1"/><polygon points="194.46 55.49 194.46 35.03 167.18 35.03 146.71 35.03 119.43 35.03 119.43 55.49 146.71 55.49 146.71 87.35 136.48 77.13 122.02 91.6 156.95 126.48 191.87 91.6 177.41 77.13 167.18 87.35 167.18 55.49 194.46 55.49" class="cls-1"/></g><path d="M226.77,226.77H0V0H226.77ZM19.49,207.28H207.28V19.49H19.49Z" class="cls-1"/></g></svg>