<svg width="368" height="234" viewBox="0 0 368 234" fill="none" xmlns="http://www.w3.org/2000/svg">
<g >
<!-- filter="url(#filter0_d_3_4)" -->
<!-- #00FF38 -->
<path d="M93.6727 0V50.1675H124.897V0H143.855V69.1196H74.7151V0H93.6727Z" fill="white"/>
<path d="M149.43 0H192.921V50.1675H199.612V0H218.57V69.1196H175.079V18.9522H168.388V69.1196H149.43V0Z" fill="white"/>
<path d="M225.261 43.4785V24.5263H263.176V40.134C263.176 45.7081 267.636 49.0526 272.097 49.0526H294.4V68.0048H272.097C257.6 68.0048 245.333 56.8565 244.218 43.4785H225.261ZM243.103 18.9522V0H262.061V18.9522H243.103Z" fill="white"/>
<path d="M299.976 0H368V18.9522H343.467L365.77 41.2488L352.388 54.6268L343.467 44.5933V69.1196H324.509V44.5933L315.588 53.512L302.206 40.134L324.509 17.8373H299.976V0Z" fill="white"/>
<path d="M243.103 78.0383V102.565L252.024 93.6459L264.291 105.909L273.212 96.9904V78.0383H292.17V147.158H273.212V122.632L264.291 131.55L252.024 119.287L243.103 128.206V146.043H224.145V78.0383H243.103Z" fill="white"/>
<path d="M299.976 78.0383H368V147.158H349.042V122.632H342.352V147.158H323.394V122.632H316.703V147.158H297.745V78.0383H299.976ZM318.933 102.565H350.158V96.9904H318.933V102.565Z" fill="white"/>
<path d="M0 160.536H69.1394V178.373H44.6061L66.9091 200.67L53.5273 214.048L44.6061 205.129V229.656H24.5333V205.129L15.6121 214.048L2.2303 200.67L24.5333 178.373H0V160.536Z" fill="white"/>
<path d="M74.7151 160.536H93.6727V210.703H100.364V160.536H143.855V229.656H124.897V178.373H118.206V228.541H74.7151V160.536Z" fill="white"/>
<path d="M159.467 156.077L184 180.603L208.533 156.077L221.915 169.455L197.382 193.981L221.915 218.507L208.533 231.885L184 207.359L159.467 231.885L146.085 218.507L170.618 193.981L146.085 169.455L159.467 156.077Z" fill="white"/>
<path d="M293.285 228.541H224.145V159.421H293.285V228.541ZM274.327 209.589V178.373H243.103V209.589H274.327Z" fill="white"/>
<path d="M318.933 160.536V178.373L334.545 193.981L350.158 178.373V160.536H368V229.656H349.042V205.129L334.545 219.622L318.933 204.014V228.541H299.976V159.421H318.933V160.536Z" fill="white"/>
</g>
<defs>
<filter id="filter0_d_3_4" x="0" y="0" width="368" height="235" filterUnits="userSpaceOnUse" color-interpolation-filters="sRGB">
<feFlood flood-opacity="0" result="BackgroundImageFix"/>
<feColorMatrix in="SourceAlpha" type="matrix" values="0 0 0 0 0 0 0 0 0 0 0 0 0 0 0 0 0 0 127 0" result="hardAlpha"/>
<feOffset dy="2"/>
<feColorMatrix type="matrix" values="0 0 0 0 0 0 0 0 0 0 0 0 0 0 0 0 0 0 0.25 0"/>
<feBlend mode="normal" in2="BackgroundImageFix" result="effect1_dropShadow_3_4"/>
<feBlend mode="normal" in="SourceGraphic" in2="effect1_dropShadow_3_4" result="shape"/>
</filter>
</defs>
</svg>
