<svg id="SV_Logo_Full" data-name="SV Logo Full" xmlns="http://www.w3.org/2000/svg" width="840" height="180" viewBox="0 0 840 180">
  <defs>
    <style>
      .cls-1 {
        fill: #fff;
      }

      .cls-2 {
        fill: none;
      }
    </style>
  </defs>
  <rect id="Background" class="cls-1" width="840" height="180"/>
  <g id="SV_Logo_Full-2" data-name="SV Logo Full">
    <rect id="Safety_Zone" data-name="Safety Zone" class="cls-2" width="840" height="180"/>
    <g>
      <polygon points="341.25 78.75 366.56 90 341.25 101.25 341.25 112.5 378.75 94.69 378.75 85.31 341.25 67.5 341.25 78.75"/>
      <polygon points="390 78.75 415.31 90 390 101.25 390 112.5 427.5 94.69 427.5 85.31 390 67.5 390 78.75"/>
      <polygon points="438.75 78.75 464.06 90 438.75 101.25 438.75 112.5 476.25 94.69 476.25 85.31 438.75 67.5 438.75 78.75"/>
      <path d="M89.52,110.74a18.23,18.23,0,0,1-13.72-5.83Q70.24,99.09,70.23,90q0-9.34,5.57-15a18.44,18.44,0,0,1,13.72-5.7q11.91,0,17.48,11.83l9.17-6.6a25,25,0,0,0-10.11-11.36,30.24,30.24,0,0,0-16.2-4.33q-13.38,0-22.24,8.7T58.74,90q0,13.89,8.66,22.54t22,8.66q9.43,0,15.43-3.73t11.66-12.38l-8.83-6.35Q101.26,110.74,89.52,110.74Z"/>
      <polygon points="141.12 98.14 138.54 102.86 138.54 60 127.57 60 127.57 120 139.06 120 164.09 81.6 166.66 76.89 166.66 120 177.63 120 177.63 60 166.14 60 141.12 98.14"/>
      <path d="M197.51,106.37c-.28,2.4-1.57,3.6-3.85,3.6A7.5,7.5,0,0,1,190,109l-2.06,10.37a24.46,24.46,0,0,0,8.32,1.2,11.87,11.87,0,0,0,8.23-3,12.59,12.59,0,0,0,3.94-8.31l4.37-39.17h16.72V120H240.8V60H202.74Z"/>
      <path d="M272.86,60,248.6,120h12.08l6-15.69h23.15l6,15.69h12.08L283.66,60Zm-2.32,34.2L276,79.8l2.23-6.51q1.11,3.6,2.22,6.51L286,94.2Z"/>
      <path d="M545.57,87.43a16,16,0,0,0,6-5.1,12.87,12.87,0,0,0,2.36-7.67,12.85,12.85,0,0,0-5-10.8q-5-3.86-14.18-3.86H510v60h25.11q9,0,15.13-4.89A15.87,15.87,0,0,0,556.37,102Q556.37,91.71,545.57,87.43ZM521.31,69.94h12.52c3.14,0,5.44.55,6.9,1.63a5.89,5.89,0,0,1,2.18,5.06,5.9,5.9,0,0,1-2.18,5.06q-2.19,1.62-6.9,1.62H521.31Zm13.12,40H521.31V93.26h13.12q10.62,0,10.63,8.31T534.43,109.89Z"/>
      <polygon points="579.6 94.03 607.28 94.03 607.28 83.91 579.6 83.91 579.6 70.11 609.68 70.11 609.68 60 568.28 60 568.28 120 609.94 120 609.94 109.89 579.6 109.89 579.6 94.03"/>
      <polygon points="618.68 70.46 637.03 70.46 637.03 120 648.34 120 648.34 70.46 666.68 70.46 666.68 60 618.68 60 618.68 70.46"/>
      <path d="M720.56,65.1q-6-5.1-16.42-5.1H676.88v60H688.2V99.09h15.94q10.36,0,16.42-5.1t6-14.45Q726.6,70.19,720.56,65.1Zm-8.15,21.34Q709.55,89,703.8,89H688.2V70.11h15.6c3.83,0,6.7.85,8.61,2.53a8.71,8.71,0,0,1,2.87,6.9A8.69,8.69,0,0,1,712.41,86.44Z"/>
      <path d="M759.49,60h-10.8l-24.25,60h12.08l6-15.69h23.14l6,15.69h12.09ZM746.38,94.2l5.48-14.4,2.23-6.52c.74,2.41,1.49,4.58,2.23,6.52l5.49,14.4Z"/>
    </g>
  </g>
</svg>
