<svg width="132" height="27" viewBox="0 0 132 27" fill="none" xmlns="http://www.w3.org/2000/svg">
<path d="M132 0H0V27H132V0Z" fill="black"/>
<path d="M77.7412 8.54706H74.9723V11.3521H77.7412V8.54706Z" fill="white"/>
<path d="M86.0527 8.54706H83.2822V11.3521H86.0527V8.54706Z" fill="white"/>
<path d="M77.7412 16.9623H74.9723V19.7658H77.7412V16.9623Z" fill="white"/>
<path d="M86.0527 16.9623H83.2822V19.7658H86.0527V16.9623Z" fill="white"/>
<path d="M16.6825 18.0164C16.3998 18.3606 16.0783 18.6702 15.7245 18.9387C15.4421 19.1505 15.1364 19.3284 14.8135 19.4689C14.5389 19.5875 14.25 19.6686 13.9543 19.7102C13.6908 19.7457 13.4252 19.7637 13.1594 19.7642C12.552 19.7771 11.9506 19.641 11.4065 19.3673C10.899 19.1005 10.4612 18.716 10.1286 18.245C9.76297 17.717 9.49716 17.1249 9.34469 16.4988C9.16013 15.7568 9.07107 14.9937 9.07972 14.2286C9.06629 13.4235 9.17199 12.6209 9.3933 11.8474C9.58125 11.2042 9.88358 10.6011 10.2854 10.0678C10.6395 9.59426 11.0952 9.20831 11.6182 8.93914C12.1299 8.67741 12.6959 8.54299 13.2691 8.54703C13.531 8.54649 13.7927 8.56027 14.0531 8.5883C14.3298 8.61827 14.6028 8.6757 14.8684 8.75975C15.1739 8.85759 15.4678 8.98908 15.7449 9.15186C16.0818 9.35185 16.3971 9.58702 16.6856 9.85353V4.41638H17.7722V19.4896H16.6825V18.0164ZM16.6825 11.1902C16.2444 10.7158 15.7262 10.3245 15.1522 10.0345C14.6017 9.77266 13.9996 9.64076 13.3914 9.64874C12.9368 9.64269 12.4865 9.73865 12.0728 9.92973C11.6706 10.1252 11.3226 10.4187 11.06 10.7838C10.7559 11.2144 10.5347 11.6991 10.4077 12.2125C10.2434 12.8719 10.1654 13.5503 10.1757 14.2302C10.1757 15.6791 10.4522 16.7803 11.0051 17.5338C11.558 18.2873 12.3284 18.6636 13.3162 18.6625C13.955 18.6671 14.5804 18.4774 15.1114 18.118C15.7268 17.6825 16.2591 17.1377 16.6825 16.5099V11.1902Z" fill="white"/>
<path d="M25.5333 19.7642C24.8487 19.7742 24.1691 19.6458 23.5342 19.3864C22.9448 19.1411 22.4175 18.7645 21.9914 18.2847C21.5413 17.769 21.2013 17.1648 20.9926 16.5099C20.7452 15.7415 20.6254 14.9368 20.6383 14.1287C20.6275 13.3374 20.7424 12.5495 20.9785 11.7951C21.1832 11.1498 21.5138 10.5528 21.9506 10.0393C22.3586 9.56324 22.8649 9.18386 23.4338 8.92805C24.0346 8.66592 24.6832 8.53501 25.3373 8.54388C26.0041 8.53435 26.6656 8.66517 27.2799 8.92805C27.8514 9.17936 28.3587 9.55943 28.7631 10.0393C29.1905 10.5567 29.5104 11.156 29.7039 11.8014C29.9312 12.5624 30.0412 13.3544 30.03 14.1493V14.397H21.7264C21.7632 15.0421 21.8959 15.6779 22.1199 16.2829C22.3041 16.7747 22.581 17.2254 22.9353 17.61C23.2608 17.9578 23.658 18.2288 24.0986 18.4038C24.5563 18.5818 25.043 18.6707 25.5333 18.6657C25.8993 18.665 26.264 18.6207 26.6198 18.5339C26.966 18.4537 27.2984 18.3215 27.606 18.1418C27.8912 17.9757 28.1428 17.7564 28.3476 17.4957C28.5454 17.2419 28.6678 16.9363 28.7004 16.6147H29.7744C29.6016 17.5558 29.0749 18.3923 28.3053 18.9483C27.9222 19.2245 27.4946 19.4313 27.0416 19.5595C26.5509 19.6994 26.0431 19.7684 25.5333 19.7642ZM28.9184 13.2952C28.7365 12.075 28.3262 11.1622 27.6876 10.5568C27.052 9.95267 26.2072 9.62593 25.3357 9.64719C24.8956 9.64368 24.4584 9.71837 24.0438 9.86785C23.6452 10.0147 23.2814 10.2445 22.976 10.5425C22.6476 10.8716 22.3819 11.259 22.1921 11.6855C21.9643 12.197 21.8111 12.7392 21.7374 13.2952H28.9184Z" fill="white"/>
<path d="M36.3549 19.7643C33.771 19.7643 32.3599 18.7139 32.1216 16.6131H33.2191C33.2496 16.9134 33.3439 17.2035 33.4954 17.4635C33.647 17.7236 33.8522 17.9474 34.0971 18.1196C34.5989 18.4837 35.3441 18.6652 36.333 18.6641C36.7595 18.6713 37.1849 18.6179 37.5967 18.5054C37.9211 18.419 38.2275 18.2744 38.5014 18.0783C38.7294 17.9145 38.914 17.6965 39.0392 17.4433C39.1561 17.1956 39.2161 16.9242 39.2148 16.6496C39.2218 16.399 39.173 16.1499 39.0721 15.9209C38.9593 15.6907 38.7856 15.4967 38.5704 15.3606C38.2501 15.1611 37.9075 15.0012 37.5497 14.8843C37.1201 14.7319 36.5697 14.5689 35.8987 14.3954C35.3279 14.2483 34.8205 14.0969 34.3762 13.9413C33.975 13.8074 33.5964 13.612 33.2536 13.3619C32.9612 13.1458 32.7259 12.8601 32.5684 12.5301C32.4019 12.1464 32.3225 11.7297 32.3364 11.3109C32.3288 10.9116 32.4176 10.5165 32.5951 10.1599C32.773 9.81526 33.0267 9.51654 33.3367 9.28683C33.686 9.0341 34.0783 8.84846 34.4938 8.73915C34.9856 8.60581 35.4931 8.54118 36.0021 8.54706C37.2565 8.54706 38.2061 8.75872 38.851 9.18205C39.4959 9.60538 39.856 10.2774 39.9313 11.1982H38.8338C38.8103 10.9553 38.7295 10.7217 38.5983 10.5169C38.467 10.3122 38.2892 10.1424 38.0796 10.0218C37.649 9.76995 37.0077 9.64348 36.1558 9.64243C35.7871 9.6395 35.4191 9.67675 35.0583 9.75355C34.7561 9.8129 34.4651 9.92005 34.1959 10.071C33.9678 10.2019 33.7742 10.3865 33.6315 10.6092C33.494 10.8287 33.4231 11.0843 33.4276 11.3442C33.4293 11.5064 33.4568 11.6672 33.5092 11.8205C33.5957 12.0272 33.7395 12.2042 33.9231 12.33C34.2317 12.5512 34.5681 12.7295 34.9234 12.8603C35.5179 13.0849 36.1259 13.271 36.7438 13.4175C37.2777 13.5566 37.8037 13.7252 38.3195 13.9223C38.7192 14.0655 39.0951 14.2694 39.4343 14.5271C39.7145 14.7438 39.9401 15.0245 40.0928 15.3463C40.2453 15.6926 40.3197 16.0689 40.3107 16.448C40.3141 16.9016 40.2189 17.3503 40.0316 17.7624C39.8498 18.1673 39.5821 18.5266 39.2477 18.8149C38.8806 19.1245 38.4586 19.3605 38.0043 19.5103C37.4722 19.6869 36.9148 19.7727 36.3549 19.7643Z" fill="white"/>
<path d="M44.4437 19.4896H43.3556V8.82169H44.4437V19.4896ZM44.4437 7.16911H43.3556V6.03247H44.4437V7.16911Z" fill="white"/>
<path d="M117.18 19.4896H116.092V8.82169H117.18V19.4896ZM117.18 7.16911H116.092V6.03247H117.18V7.16911Z" fill="white"/>
<path d="M55.9992 18.8562C56.014 19.5933 55.9227 20.3286 55.7279 21.039C55.5762 21.5852 55.299 22.0873 54.9189 22.5042C54.544 22.8907 54.0785 23.1748 53.5658 23.3297C52.9529 23.5143 52.3157 23.6026 51.6764 23.5917C51.1307 23.5984 50.5865 23.5311 50.0584 23.3916C49.6162 23.2758 49.1975 23.0824 48.8213 22.8201C48.4837 22.5814 48.2065 22.2654 48.0123 21.8978C47.8119 21.5101 47.6984 21.0824 47.6799 20.6453H48.7617C48.8077 21.2803 49.069 21.7459 49.5457 22.0423C50.0223 22.3386 50.72 22.4878 51.6388 22.4899C52.1217 22.4983 52.6029 22.4314 53.0656 22.2915C53.4567 22.1682 53.8088 21.9426 54.0863 21.6375C54.3805 21.2913 54.5919 20.8812 54.7041 20.4389C54.8576 19.8416 54.9289 19.2256 54.9157 18.6085V17.9386C54.6177 18.3059 54.2824 18.6406 53.9154 18.9371C53.6387 19.1589 53.3352 19.344 53.0123 19.488C52.7455 19.6054 52.4636 19.684 52.175 19.7214C51.9149 19.7528 51.6531 19.7687 51.3911 19.769C50.7828 19.7807 50.1808 19.6429 49.6366 19.3673C49.1292 19.1006 48.6913 18.716 48.3588 18.245C47.9925 17.7173 47.7266 17.1251 47.5748 16.4988C47.3903 15.7568 47.3012 14.9937 47.3098 14.2286C47.2965 13.4235 47.4022 12.6209 47.6234 11.8474C47.8086 11.2017 48.1083 10.5955 48.5077 10.0583C48.8618 9.58474 49.3175 9.19879 49.8404 8.92961C50.3522 8.66789 50.9181 8.53347 51.4914 8.5375C51.7536 8.53809 52.0155 8.55612 52.2754 8.59148C52.5621 8.63133 52.8445 8.6983 53.1189 8.7915C53.4243 8.89475 53.7198 9.026 54.0016 9.18361C54.3218 9.36365 54.6228 9.57643 54.9001 9.81861V8.82166H55.9866L55.9992 18.8562ZM54.9126 11.1886C54.4742 10.7146 53.956 10.3233 53.3823 10.0329C52.8318 9.77107 52.2298 9.63917 51.6216 9.64716C51.1647 9.64066 50.7121 9.73719 50.2967 9.92973C49.8942 10.1248 49.5461 10.4183 49.2838 10.7838C48.9798 11.2144 48.7585 11.6991 48.6316 12.2125C48.4665 12.8718 48.3884 13.5502 48.3995 14.2302C48.3995 15.6791 48.676 16.7803 49.229 17.5338C49.7819 18.2873 50.5523 18.6636 51.54 18.6625C52.1788 18.6669 52.8042 18.4773 53.3353 18.118C53.9529 17.6831 54.4874 17.1382 54.9126 16.5099V11.1886Z" fill="white"/>
<path d="M60.568 10.4044C60.873 10.028 61.222 9.69056 61.6075 9.39954C61.9142 9.17108 62.2476 8.9818 62.6 8.83598C62.8937 8.71435 63.2022 8.63319 63.5172 8.59468C63.7885 8.56403 64.0612 8.54813 64.3341 8.54706C66.4957 8.54706 67.5765 9.84086 67.5765 12.4285V19.4896H66.4947V12.5253C66.5016 12.0925 66.4584 11.6605 66.3661 11.2379C66.2964 10.9102 66.152 10.6036 65.9443 10.3425C65.741 10.1026 65.4779 9.9223 65.1823 9.82022C64.701 9.66014 64.1907 9.60971 63.688 9.67256C63.1852 9.7354 62.7023 9.90996 62.2739 10.1838C61.6336 10.5993 61.0586 11.1098 60.568 11.6982V19.4896H59.4799V8.82169H60.568V10.4044Z" fill="white"/>
<path d="M100.471 18.0577C100.217 18.3714 99.9167 18.6434 99.5805 18.8641C99.2634 19.0714 98.9267 19.2464 98.5755 19.3864C98.2501 19.5158 97.9129 19.6125 97.5689 19.6753C97.2752 19.7315 96.9772 19.7613 96.6783 19.7642C94.524 19.7642 93.4469 18.4678 93.4469 15.8749V8.82166H94.535V15.7733C94.535 16.7734 94.7185 17.5052 95.0853 17.9688C95.4522 18.4323 96.0888 18.6641 96.995 18.6641C97.6487 18.6637 98.2884 18.4724 98.8373 18.1132C99.4706 17.6918 100.025 17.1602 100.476 16.5432V8.82166H101.564V19.4896H100.471V18.0577Z" fill="white"/>
<path d="M105.893 10.4044C106.197 10.0281 106.546 9.69066 106.931 9.39954C107.238 9.17108 107.571 8.9818 107.923 8.83598C108.218 8.71432 108.527 8.63316 108.842 8.59468C109.113 8.56398 109.385 8.54809 109.657 8.54706C111.823 8.54706 112.906 9.84086 112.906 12.4285V19.4896H111.818V12.5253C111.825 12.0925 111.782 11.6605 111.689 11.2379C111.62 10.91 111.476 10.6032 111.268 10.3425C111.065 10.103 110.802 9.92276 110.507 9.82022C110.137 9.6956 109.748 9.63705 109.358 9.64719C108.733 9.65528 108.123 9.84122 107.597 10.1838C106.957 10.5993 106.382 11.1098 105.891 11.6982V19.4896H104.803V8.82169H105.891L105.893 10.4044Z" fill="white"/>
<path d="M124.021 19.5864C123.864 19.6039 123.707 19.6182 123.551 19.6277C123.394 19.6372 123.237 19.6404 123.088 19.6404C122.7 19.6565 122.313 19.5889 121.953 19.442C121.678 19.3176 121.449 19.1073 121.301 18.8419C121.137 18.5331 121.038 18.1939 121.007 17.845C120.959 17.381 120.937 16.9146 120.94 16.448V9.9234H119.595V8.82169H120.94V6.03247H122.028V8.82645H123.753V9.92817H122.028V16.548C122.02 16.9018 122.051 17.2555 122.122 17.6021C122.167 17.8244 122.265 18.0321 122.408 18.2069C122.531 18.3477 122.696 18.4445 122.878 18.4831C123.084 18.5264 123.294 18.5472 123.505 18.5451H123.764C123.846 18.5445 123.927 18.5397 124.008 18.5308L124.021 19.5864Z" fill="white"/>
</svg>
