<svg xmlns="http://www.w3.org/2000/svg" xmlns:xlink="http://www.w3.org/1999/xlink" width="356.45" height="102.68" viewBox="0 0 356.45 102.68">
  <defs>
    <style>
      .cls-1 {
        fill: none;
      }

      .cls-2 {
        isolation: isolate;
      }

      .cls-3 {
        opacity: 0.6;
        mix-blend-mode: screen;
      }

      .cls-4 {
        clip-path: url(#clip-path);
      }

      .cls-5 {
        fill: lime;
      }

      .cls-6 {
        clip-path: url(#clip-path-2);
      }

      .cls-7 {
        fill: red;
      }

      .cls-8 {
        fill: blue;
      }
    </style>
    <clipPath id="clip-path">
      <rect class="cls-1" y="21.8" width="356.45" height="80.88"/>
    </clipPath>
    <clipPath id="clip-path-2">
      <rect class="cls-1" y="20.8" width="356.45" height="80.88"/>
    </clipPath>
  </defs>
  <g class="cls-2">
    <g id="Слой_1" data-name="Слой 1">
      <g>
        <g>
          <g class="cls-3">
            <g class="cls-4">
              <polygon class="cls-5" points="17 38.19 77.09 38.19 77.09 54.58 55.9 54.58 75.02 73.7 63.43 85.29 55.24 77.1 55.24 98.29 38.85 98.29 38.85 77.1 30.66 85.29 19.07 73.7 38.19 54.58 17 54.58 17 38.19"/>
              <polygon class="cls-5" points="82.59 38.19 98.98 38.19 98.98 81.9 104.44 81.9 104.44 38.19 142.68 38.19 142.68 98.29 126.29 98.29 126.29 54.58 120.83 54.58 120.83 98.29 82.59 98.29 82.59 38.19"/>
              <polygon class="cls-5" points="156.37 34.8 178.22 56.65 200.08 34.8 211.66 46.39 189.81 68.24 211.66 90.09 200.08 101.68 178.22 79.83 156.37 101.68 144.78 90.09 166.64 68.24 144.78 46.39 156.37 34.8"/>
              <path class="cls-5" d="M257.47,54.58H230.16V81.9h27.31Zm16.39,43.71H213.77V38.19h60.09Z"/>
              <polygon class="cls-5" points="295.75 38.19 295.75 53.92 309.41 67.58 323.06 53.92 323.06 38.19 339.45 38.19 339.45 98.29 323.06 98.29 323.06 77.1 309.41 90.75 295.75 77.1 295.75 98.29 279.36 98.29 279.36 38.19 295.75 38.19"/>
            </g>
          </g>
          <g class="cls-3">
            <g class="cls-6">
              <polygon class="cls-7" points="17 37.19 77.09 37.19 77.09 53.58 55.9 53.58 75.02 72.7 63.43 84.29 55.24 76.1 55.24 97.29 38.85 97.29 38.85 76.1 30.66 84.29 19.07 72.7 38.19 53.58 17 53.58 17 37.19"/>
              <polygon class="cls-7" points="82.59 37.19 98.98 37.19 98.98 80.9 104.44 80.9 104.44 37.19 142.68 37.19 142.68 97.29 126.29 97.29 126.29 53.58 120.83 53.58 120.83 97.29 82.59 97.29 82.59 37.19"/>
              <polygon class="cls-7" points="156.37 33.8 178.22 55.65 200.08 33.8 211.66 45.39 189.81 67.24 211.66 89.09 200.08 100.68 178.22 78.83 156.37 100.68 144.78 89.09 166.64 67.24 144.78 45.39 156.37 33.8"/>
              <path class="cls-7" d="M257.47,53.58H230.16V80.9h27.31Zm16.39,43.71H213.77V37.19h60.09Z"/>
              <polygon class="cls-7" points="295.75 37.19 295.75 52.92 309.41 66.58 323.06 52.92 323.06 37.19 339.45 37.19 339.45 97.29 323.06 97.29 323.06 76.1 309.41 89.75 295.75 76.1 295.75 97.29 279.36 97.29 279.36 37.19 295.75 37.19"/>
            </g>
          </g>
          <g class="cls-3">
            <g class="cls-6">
              <polygon class="cls-8" points="17 37.19 77.09 37.19 77.09 53.58 55.9 53.58 75.02 72.7 63.43 84.29 55.24 76.1 55.24 97.29 38.85 97.29 38.85 76.1 30.66 84.29 19.07 72.7 38.19 53.58 17 53.58 17 37.19"/>
              <polygon class="cls-8" points="82.59 37.19 98.98 37.19 98.98 80.9 104.44 80.9 104.44 37.19 142.68 37.19 142.68 97.29 126.29 97.29 126.29 53.58 120.83 53.58 120.83 97.29 82.59 97.29 82.59 37.19"/>
              <polygon class="cls-8" points="156.37 33.8 178.22 55.65 200.08 33.8 211.66 45.39 189.81 67.24 211.66 89.09 200.08 100.68 178.22 78.83 156.37 100.68 144.78 89.09 166.64 67.24 144.78 45.39 156.37 33.8"/>
              <path class="cls-8" d="M257.47,53.58H230.16V80.9h27.31Zm16.39,43.71H213.77V37.19h60.09Z"/>
              <polygon class="cls-8" points="295.75 37.19 295.75 52.92 309.41 66.58 323.06 52.92 323.06 37.19 339.45 37.19 339.45 97.29 323.06 97.29 323.06 76.1 309.41 89.75 295.75 76.1 295.75 97.29 279.36 97.29 279.36 37.19 295.75 37.19"/>
            </g>
          </g>
        </g>
        <polygon class="cls-5" points="17 37.19 77.09 37.19 77.09 53.58 55.9 53.58 75.02 72.7 63.43 84.29 55.24 76.1 55.24 97.29 38.85 97.29 38.85 76.1 30.66 84.29 19.07 72.7 38.19 53.58 17 53.58 17 37.19"/>
        <polygon class="cls-5" points="82.59 37.19 98.98 37.19 98.98 80.9 104.44 80.9 104.44 37.19 142.68 37.19 142.68 97.29 126.29 97.29 126.29 53.58 120.83 53.58 120.83 97.29 82.59 97.29 82.59 37.19"/>
        <polygon class="cls-5" points="156.37 33.8 178.22 55.65 200.08 33.8 211.66 45.39 189.81 67.24 211.66 89.09 200.08 100.68 178.22 78.83 156.37 100.68 144.78 89.09 166.64 67.24 144.78 45.39 156.37 33.8"/>
        <path class="cls-5" d="M257.47,53.58H230.16V80.9h27.31Zm16.39,43.71H213.77V37.19h60.09Z"/>
        <polygon class="cls-5" points="295.75 37.19 295.75 52.92 309.41 66.58 323.06 52.92 323.06 37.19 339.45 37.19 339.45 97.29 323.06 97.29 323.06 76.1 309.41 89.75 295.75 76.1 295.75 97.29 279.36 97.29 279.36 37.19 295.75 37.19"/>
        <g>
          <path d="M38.89,19.19a5.57,5.57,0,0,1-1.24,3.74,7.33,7.33,0,0,1-3.33,2.13,15,15,0,0,1-4.61.68H17.14V.18H32a5.19,5.19,0,0,1,3.11,1,6.26,6.26,0,0,1,2,2.47,7.47,7.47,0,0,1,.7,3.13,7,7,0,0,1-.92,3.42,5.77,5.77,0,0,1-2.75,2.49,6.67,6.67,0,0,1,3.47,2.26A6.74,6.74,0,0,1,38.89,19.19Zm-14.73-13v3.92H29a2.51,2.51,0,0,0,.9-.16,1.48,1.48,0,0,0,.72-.6,2.18,2.18,0,0,0,.29-1.22A2.35,2.35,0,0,0,30.63,7,1.54,1.54,0,0,0,30,6.35a1.79,1.79,0,0,0-.84-.19Zm7.6,11.59a2.73,2.73,0,0,0-.23-1.14,2.09,2.09,0,0,0-.63-.77,1.59,1.59,0,0,0-.94-.29h-5.8v4.29h5.55a2.14,2.14,0,0,0,1-.26,1.77,1.77,0,0,0,.74-.72A2.17,2.17,0,0,0,31.76,17.75Z"/>
          <path d="M42.38,12.71a12.43,12.43,0,0,1,.88-4.59A13.09,13.09,0,0,1,45.84,4,12.49,12.49,0,0,1,50,1.1,13.22,13.22,0,0,1,55.45,0a12.93,12.93,0,0,1,6.41,1.53,9.9,9.9,0,0,1,4.06,4.05L60.56,9.4a4.27,4.27,0,0,0-1.35-1.95,5.35,5.35,0,0,0-1.91-1,7.82,7.82,0,0,0-2-.27,5.52,5.52,0,0,0-2.61.59,5.36,5.36,0,0,0-1.8,1.57,7.2,7.2,0,0,0-1,2.16,8.52,8.52,0,0,0,0,4.93,6.91,6.91,0,0,0,1.16,2.18,5.37,5.37,0,0,0,1.85,1.49,5.5,5.5,0,0,0,2.47.54,7,7,0,0,0,2-.3,5.43,5.43,0,0,0,1.83-1,4.32,4.32,0,0,0,1.26-1.84L66.18,20a7.54,7.54,0,0,1-2.52,3.2,13.14,13.14,0,0,1-4,2,14.62,14.62,0,0,1-4.43.7A11.93,11.93,0,0,1,50,24.79a13.17,13.17,0,0,1-4.07-3,13.78,13.78,0,0,1-2.64-4.25A12.78,12.78,0,0,1,42.38,12.71Z"/>
          <path d="M90.37,6.3H83V25.74H76V6.3H68.62V.18H90.37Z"/>
          <path d="M94.72,25.74V.18h11a7.86,7.86,0,0,1,3.46.76,8.7,8.7,0,0,1,2.73,2,9.47,9.47,0,0,1,1.78,2.86A8.65,8.65,0,0,1,114.34,9a9,9,0,0,1-1.06,4.28,8.9,8.9,0,0,1-3,3.29,7.63,7.63,0,0,1-4.41,1.28h-4.18v7.85Zm7-14h3.71a1.49,1.49,0,0,0,.83-.25,2,2,0,0,0,.67-.86A4.08,4.08,0,0,0,107.22,9a3.81,3.81,0,0,0-.31-1.68,1.88,1.88,0,0,0-.76-.83,2,2,0,0,0-.88-.23h-3.53Z"/>
          <path d="M137.17,19.62v6.12H119V.18h17.89V6.3H126V9.9h9.29v5.69H126v4Z"/>
          <path d="M162.15,6.3h-7.34V25.74h-7V6.3h-7.38V.18h21.74Z"/>
          <path d="M166.65,25.74V.18h7V15.73L183.1.18h6.55V25.74h-7V10.19l-9.33,15.55Z"/>
          <path d="M215.32,25.74V12.28L211,21.74h-3.75L203,12.28V25.74h-7V.18h7.67l5.51,12,5.54-12h7.63V25.74Z"/>
          <path d="M227.13,12.71A12.43,12.43,0,0,1,228,8.12,13.09,13.09,0,0,1,230.59,4a12.49,12.49,0,0,1,4.12-2.93A13.22,13.22,0,0,1,240.2,0a12.93,12.93,0,0,1,6.41,1.53,9.9,9.9,0,0,1,4.06,4.05L245.31,9.4A4.27,4.27,0,0,0,244,7.45a5.35,5.35,0,0,0-1.91-1,7.82,7.82,0,0,0-2-.27,5.52,5.52,0,0,0-2.61.59,5.36,5.36,0,0,0-1.8,1.57,7.2,7.2,0,0,0-1,2.16,8.52,8.52,0,0,0,.05,4.93,6.91,6.91,0,0,0,1.16,2.18,5.37,5.37,0,0,0,1.85,1.49,5.5,5.5,0,0,0,2.47.54,7,7,0,0,0,2-.3,5.43,5.43,0,0,0,1.83-1,4.32,4.32,0,0,0,1.26-1.84L250.93,20a7.54,7.54,0,0,1-2.52,3.2,13.14,13.14,0,0,1-4,2,14.62,14.62,0,0,1-4.43.7,11.93,11.93,0,0,1-5.2-1.13,13.17,13.17,0,0,1-4.07-3,13.78,13.78,0,0,1-2.64-4.25A12.78,12.78,0,0,1,227.13,12.71Z"/>
          <path d="M254.2,25.74,260,16a7.19,7.19,0,0,1-3.28-2.89,8.72,8.72,0,0,1-1.19-4.59,8.27,8.27,0,0,1,1.12-4.32,7.87,7.87,0,0,1,3.06-2.94A9.18,9.18,0,0,1,264.14.18h11.73V25.74h-7V16.81h-1.8l-5,8.93Zm10.95-14.87h3.7V6.12h-3.7a3.63,3.63,0,0,0-1.16.2A1.91,1.91,0,0,0,263,7a2.46,2.46,0,0,0-.38,1.46A2.51,2.51,0,0,0,263,10a1.81,1.81,0,0,0,.94.72A3.42,3.42,0,0,0,265.15,10.87Z"/>
          <path d="M314.57.18V25.74h-7v-10H299v10h-7V.18h7V9.61h8.57V.18Z"/>
          <path d="M326.67.18h7.85l8.13,25.56h-7.13l-1.32-5H327l-1.32,5H318.5ZM333,16.06l-2.38-9-2.37,9Z"/>
        </g>
      </g>
    </g>
  </g>
</svg>
