<?xml version="1.0" encoding="UTF-8"?>
<svg id="_Слой_1" data-name="Слой 1" xmlns="http://www.w3.org/2000/svg" viewBox="0 0 302.4 62.68">
  <defs>
    <style>
      .cls-1 {
        fill: #1d1d1b;
      }
    </style>
  </defs>
  <path class="cls-1" d="M33.04,15.5h-4.78L10.21,45.4h5.1l5.19-8.93h11.89l1.4,8.93h4.6l-5.29-29.66-.04-.24Zm-1.25,17.29h-9.19l7.19-12.46,2,12.46Z"/>
  <path class="cls-1" d="M59.91,32.38c.75-.99,1.13-2.2,1.13-3.57,0-1.11-.21-2.05-.61-2.78-.42-.74-1.02-1.29-1.81-1.63-.75-.33-1.51-.55-2.25-.66-.74-.11-1.63-.17-2.66-.17h-9.21l-4.61,21.83h12.12c.07,0,.33,0,.77-.02,.62-.02,.79-.05,.89-.07,.05-.01,.22-.05,.68-.1,.41-.05,.69-.11,.87-.19,.14-.06,.37-.14,.66-.23,.34-.1,.61-.21,.81-.34,.18-.11,.4-.26,.66-.44,.26-.19,.49-.38,.69-.58,1.4-1.34,2.11-3.05,2.11-5.07,0-1.13-.3-2.11-.88-2.93-.42-.59-.96-1.04-1.62-1.36,.93-.35,1.69-.92,2.27-1.69Zm-13.25-.12l1.18-5.26h5.28c.46,0,.82,0,1.1,.02,.26,.01,.6,.06,1.03,.14,.4,.07,.7,.18,.9,.31,.2,.13,.38,.33,.55,.61,.16,.27,.25,.61,.25,1.02,0,1.09-.33,1.87-1,2.38-.69,.52-1.59,.78-2.7,.78h-6.59Zm9.38,6.06c0,.83-.25,1.58-.76,2.2-.51,.64-1.14,1.04-1.92,1.21-.86,.16-1.96,.24-3.28,.24h-5.44l1.32-6.33h6.72c2.27,0,3.37,.87,3.37,2.67Z"/>
  <path class="cls-1" d="M96.67,23.57l-8.6,16.13-2.46-16.13h-18.98l-4.66,21.83h4.1l3.91-18.32h11.16l.4-1.88,3.5,19.84-1.09,1.71c-.05,.08-.25,.39-.58,.94-.32,.53-.56,.89-.71,1.09-.14,.2-.38,.47-.7,.82-.3,.32-.6,.55-.9,.67-.31,.12-.65,.18-1.02,.18-.46,0-1.14-.13-2.01-.4l-.3-.09-.84,3.54,.27,.08c.98,.28,1.86,.42,2.59,.42,2.34,0,4.35-1.14,5.96-3.38,.64-.89,1.63-2.5,2.94-4.8l12.51-22.26h-4.51Z"/>
  <path class="cls-1" d="M115.34,16.4c-8.66,0-14.71,6.05-14.71,14.71s6.18,14.83,14.71,14.83,14.67-6.24,14.67-14.83-6.03-14.71-14.67-14.71Zm13.04,14.71c0,7.87-5.36,13.37-13.04,13.37s-13.04-5.38-13.04-13.37,5.36-13.21,13.04-13.21,13.04,5.43,13.04,13.21Z"/>
  <path class="cls-1" d="M119.18,37.99c-.97,.49-2.04,.73-3.31,.73-3.84,0-6.42-3.06-6.42-7.61s2.58-7.65,6.58-7.65c1.21,0,2.06,.18,2.99,.7l.41,3.25h1.6l-.14-3.93-.14-.08c-1.47-.86-2.73-1.36-4.8-1.36-4.9,0-8.33,3.73-8.33,9.07s3.33,9.02,8.29,9.02c1.95,0,3.4-.39,5.01-1.36l.14-.08,.09-3.92h-1.55l-.42,3.23Z"/>
  <polygon class="cls-1" points="147.56 15.5 143.54 15.5 141.73 24.06 133.74 24.06 133 27.62 140.95 27.62 135.96 51.47 135.88 51.82 139.86 51.82 144.97 27.62 153.03 27.62 153.78 24.06 145.75 24.06 147.56 15.5"/>
  <path class="cls-1" d="M180.16,15.81c-.9,1.56-2.19,2.76-3.83,3.57-1.66,.81-3.47,1.26-5.39,1.31h-.23s-.7,3.2-.7,3.2l.34,.03c.36,.03,.76,.04,1.18,.04,2.14,0,4.15-.21,5.99-.64l-4.67,22.09h4.35l6.26-29.74h-3.21l-.08,.15Z"/>
  <path class="cls-1" d="M203.05,15.81c-.9,1.56-2.19,2.76-3.83,3.57-1.66,.81-3.47,1.26-5.39,1.31h-.23s-.7,3.2-.7,3.2l.34,.03c.36,.03,.76,.04,1.18,.04,2.14,0,4.15-.21,5.99-.64l-4.67,22.09h4.35l6.26-29.74h-3.21l-.08,.15Z"/>
  <rect class="cls-1" x="212.4" y="34.07" width="30.65" height="1.66"/>
  <path class="cls-1" d="M259.28,15.81c-.9,1.56-2.19,2.76-3.83,3.57-1.66,.81-3.47,1.26-5.39,1.31h-.23s-.7,3.2-.7,3.2l.34,.03c.36,.03,.76,.04,1.18,.04,2.14,0,4.15-.21,6-.64l-4.67,22.09h4.35l6.26-29.74h-3.21l-.08,.15Z"/>
  <path class="cls-1" d="M281.23,30.43c3.37-1.11,5.41-3.55,5.41-6.69,0-4.87-2.91-7.34-8.65-7.34-3.25,0-5.57,.58-8.01,2.02l-.15,.09,.14,5.4h1.47l.39-4.84c1.58-.78,3.58-1.17,6.05-1.17,4.8,0,7.03,1.82,7.03,5.71s-3.06,6.25-8.39,6.25h-.96v1.41h1.49c5.92,0,8.8,2.13,8.8,6.5,0,3.99-3.44,6.66-8.56,6.66-2.51,0-4.05-.37-5.3-1.34l-1.1-2.6c-.31-.69-.79-.83-1.13-.83-.65,0-1.12,.45-1.12,1.08l.02,.11c.66,1.67,1.69,3.37,4.03,4.32l.37,.47-.16-.39c1.15,.43,2.61,.69,4.48,.69,6.16,0,10.3-3.23,10.3-8.04,0-3.98-2.31-6.6-6.44-7.47Z"/>
</svg>