<svg id="Слой_1" data-name="Слой 1" xmlns="http://www.w3.org/2000/svg" viewBox="0 0 396 78"><path d="M16.33,43.63C13.94,53.44,10.83,57,7.56,57a9.45,9.45,0,0,1-3.35-.48L3,61.65a12.89,12.89,0,0,0,4.87,1c6.62,0,11.64-4.79,14.83-17.71l4.55-18.5H41.54L34,61.89h6.78l8.77-41.15H21.92Z"/><path d="M74.56,19.54C62,19.54,52.38,31,52.38,45.7c0,10.53,6.14,17.63,17.07,17.63,9.41,0,16.91-5.19,19.06-14.36H81.57c-1.91,5.58-6,8.69-11.64,8.69-6.7,0-10.77-4.38-10.77-11.56a12.22,12.22,0,0,1,.24-2.87H90.27a35.57,35.57,0,0,0,.56-6.62C90.83,26,84.69,19.54,74.56,19.54ZM84.21,37.8H60.28c2.07-8,7.26-12.6,14-12.6,6.46,0,10.05,3.91,10.05,11A12.86,12.86,0,0,1,84.21,37.8Z"/><polygon points="125.84 5.1 119.22 5.1 115.71 21.69 100.24 21.69 99.04 27.44 114.43 27.44 104.62 74.33 111.16 74.33 121.05 27.44 136.69 27.44 137.88 21.69 122.33 21.69 125.84 5.1"/><path d="M163.09,19.46c-14.28,0-23.05,12.44-23.05,26,0,11.25,6.3,17.71,17.22,17.71,14.52,0,23.13-12.92,23.13-26.72C180.39,25.36,173.85,19.46,163.09,19.46ZM158,57.58c-7,0-11.17-4.54-11.17-12.28,0-9.33,5.51-20.26,16-20.26,6.86,0,10.68,4.23,10.68,11.65C173.45,48.33,166.59,57.58,158,57.58Z"/><path d="M229,42.83c8.78-5.18,19.23-10.77,19.23-22.57,0-9-6.38-14.92-16.19-14.92-11.81,0-18.91,8.22-19.55,19.3H219c.72-8.29,5.43-13.31,12.61-13.31,5.9,0,9.73,3.66,9.73,9.33,0,9.09-10,14-16.75,17.86-9.09,5.19-17.87,12-18.59,23.37H242.2l1.28-6.06H214C216,49.85,223.86,45.86,229,42.83Z"/><path d="M301.62,7.5l-1.43-1.2-5.58,7.13a21.12,21.12,0,0,0-15.48-6.57C266,6.86,256,18,256,34.93c0,8.19,2.35,15,6.25,19.87L256.64,62l1.44,1.2,5.42-6.93a21.18,21.18,0,0,0,15.63,6.69c13.16,0,23.13-11.09,23.13-28,0-8.28-2.4-15.19-6.39-20.08ZM258.55,34.93c0-14.35,7.82-26.32,20.58-26.32a18.11,18.11,0,0,1,14.11,6.58L263.71,52.94C260.38,48.22,258.55,41.87,258.55,34.93Zm41.16,0c0,14.36-7.82,26.24-20.58,26.24a18.16,18.16,0,0,1-14.25-6.7L294.42,16.7C297.83,21.46,299.71,27.91,299.71,34.93Z"/><path d="M329.62,42.83c8.77-5.18,19.22-10.77,19.22-22.57,0-9-6.38-14.92-16.19-14.92-11.81,0-18.9,8.22-19.54,19.3h6.54c.72-8.29,5.42-13.31,12.6-13.31,5.9,0,9.73,3.66,9.73,9.33,0,9.09-10,14-16.75,17.86-9.09,5.19-17.86,12-18.58,23.37h36.21l1.27-6.06H314.62C316.7,49.85,324.51,45.86,329.62,42.83Z"/><path d="M375.8,33.61c8.46-1.68,12.76-7,12.76-13.11,0-8.22-4.47-13.64-16.19-13.64-6.14,0-10.61,1.12-15.24,3.83l.24,9.57h1.76l.73-9.17c3.4-1.76,7.54-2.48,12.27-2.48,10.93,0,14.2,5,14.2,11.65,0,7.73-5.83,12.68-16.83,12.68h-1.28v1.59h2.31c12.92,0,17.63,5.27,17.63,13.16,0,8.3-7.18,13.48-17.15,13.48-4.93,0-8.11-.73-10.75-2.81l-2.17-5.16a1.82,1.82,0,0,0-1.67-1.28,1.49,1.49,0,0,0-1.6,1.52c2.16,5.42,5.9,9.49,16.35,9.49,12.21,0,19.38-6.46,19.38-15C390.55,40.78,386.39,34.72,375.8,33.61Z"/></svg>