<svg width="1432" height="115" viewBox="0 0 1432 115" fill="none" xmlns="http://www.w3.org/2000/svg">
<path d="M13.9395 62.8164H10.9688V78H3.83398V41.0312H10.9688V57.3066H12.7207L22.3945 41.0312H30.6465L19.627 58.8301L31.0781 78H22.8008L13.9395 62.8164ZM53.9863 70.2812H42.8906L40.707 78H33.1914L45.3027 41.0312H51.7773L63.6602 78H56.1445L53.9863 70.2812ZM44.6426 64.2129H52.3105L48.5273 50.6035L44.6426 64.2129ZM78.9004 62.8164H75.9297V78H68.7949V41.0312H75.9297V57.3066H77.6816L87.3555 41.0312H95.6074L84.5879 58.8301L96.0391 78H87.7617L78.9004 62.8164ZM157.725 78H150.59V46.8203H140.129V78H132.994V41.0312H157.725V78ZM173.32 64.4414V78H166.186V41.0312H178.83C180.844 41.0312 182.664 41.3275 184.289 41.9199C185.914 42.4954 187.302 43.2995 188.453 44.332C189.587 45.3815 190.459 46.6341 191.068 48.0898C191.695 49.5456 192.008 51.1621 192.008 52.9395C192.008 54.5983 191.695 56.1302 191.068 57.5352C190.459 58.9401 189.587 60.1504 188.453 61.166C187.302 62.1986 185.914 63.0026 184.289 63.5781C182.664 64.1536 180.844 64.4414 178.83 64.4414H173.32ZM173.32 58.6523H178.83C179.846 58.6523 180.726 58.5 181.471 58.1953C182.215 57.8906 182.842 57.4759 183.35 56.9512C183.84 56.4264 184.204 55.8255 184.441 55.1484C184.695 54.4544 184.822 53.735 184.822 52.9902C184.822 52.127 184.695 51.3229 184.441 50.5781C184.204 49.8333 183.84 49.1816 183.35 48.623C182.842 48.0645 182.215 47.6243 181.471 47.3027C180.726 46.9811 179.846 46.8203 178.83 46.8203H173.32V58.6523ZM215.322 41.0312H222.482V78H215.322V54.4121L204.836 78H197.701V41.0312H204.836V64.6445L215.322 41.0312ZM255.09 78H248.031V61.9785H237.57V78H230.486V41.0312H237.57V56.1895H248.031V41.0312H255.09V78ZM279.166 78V63.4512H273.453L266.496 78H258.854L266.852 61.293C266.191 60.9714 265.574 60.6159 264.998 60.2266C264.439 59.8203 263.932 59.3887 263.475 58.9316C262.611 58.0345 261.951 57.002 261.494 55.834C261.054 54.666 260.834 53.3542 260.834 51.8984C260.834 50.1211 261.147 48.5553 261.773 47.2012C262.4 45.847 263.305 44.7129 264.49 43.7988C265.658 42.8848 267.08 42.1992 268.756 41.7422C270.432 41.2682 272.311 41.0312 274.393 41.0312H286.326V78H279.166ZM267.969 52.3301C267.969 53.2611 268.087 54.0736 268.324 54.7676C268.578 55.4616 268.951 56.0456 269.441 56.5195C269.983 57.0104 270.66 57.3828 271.473 57.6367C272.302 57.8737 273.275 57.9922 274.393 57.9922H279.166V46.8203H274.393C273.258 46.8203 272.277 46.9557 271.447 47.2266C270.618 47.4805 269.941 47.8529 269.416 48.3438C268.925 48.8177 268.561 49.3932 268.324 50.0703C268.087 50.7305 267.969 51.4837 267.969 52.3301ZM322.818 46.8457H311.418V78H304.258V46.8457H293.01V41.0312H322.818V46.8457ZM335.291 54.6914H339.455C341.588 54.6914 343.501 54.9707 345.193 55.5293C346.903 56.071 348.35 56.8411 349.535 57.8398C350.703 58.8385 351.6 60.0488 352.227 61.4707C352.853 62.8926 353.166 64.4668 353.166 66.1934C353.166 67.9538 352.853 69.5618 352.227 71.0176C351.6 72.4564 350.703 73.6921 349.535 74.7246C348.35 75.7572 346.903 76.5612 345.193 77.1367C343.501 77.7122 341.588 78 339.455 78H328.131V41.0312H335.291V54.6914ZM335.291 60.4297V72.2617H339.455C340.572 72.2617 341.537 72.1009 342.35 71.7793C343.179 71.4577 343.873 71.0176 344.432 70.459C344.973 69.9004 345.371 69.2487 345.625 68.5039C345.896 67.7591 346.031 66.972 346.031 66.1426C346.031 65.347 345.896 64.6022 345.625 63.9082C345.371 63.2142 344.973 62.6048 344.432 62.0801C343.873 61.5723 343.179 61.1745 342.35 60.8867C341.537 60.582 340.572 60.4297 339.455 60.4297H335.291ZM392.178 77.7207L392.635 72.1348C393.075 72.2702 393.659 72.4141 394.387 72.5664C395.132 72.7188 395.826 72.7949 396.469 72.7949C397.281 72.7949 397.992 72.7103 398.602 72.541C399.211 72.3717 399.736 72.1348 400.176 71.8301C400.616 71.5254 400.98 71.1615 401.268 70.7383C401.572 70.2982 401.818 69.8073 402.004 69.2656L402.715 67.6914L389.816 41.0312H397.535L403.375 54.1074L405.686 60.5566L406.447 58.6016L413.404 41.0312H421.174L408.021 70.9922C407.581 71.9909 407.065 72.9473 406.473 73.8613C405.897 74.7754 405.203 75.5794 404.391 76.2734C403.561 76.9674 402.596 77.5176 401.496 77.9238C400.396 78.3301 399.101 78.5332 397.611 78.5332C396.41 78.5332 395.343 78.4316 394.412 78.2285C393.498 78.0423 392.753 77.873 392.178 77.7207ZM450.658 41.0312V78H443.498V63.9082C442.601 64.1452 441.653 64.3314 440.654 64.4668C439.673 64.5853 438.868 64.6445 438.242 64.6445C436.414 64.6445 434.755 64.416 433.266 63.959C431.793 63.485 430.54 62.7572 429.508 61.7754C428.458 60.7936 427.646 59.541 427.07 58.0176C426.512 56.4772 426.232 54.6491 426.232 52.5332V41.0312H433.367V52.5332C433.367 53.7689 433.46 54.793 433.646 55.6055C433.85 56.418 434.154 57.0612 434.561 57.5352C434.967 58.026 435.475 58.373 436.084 58.5762C436.693 58.7624 437.413 58.8555 438.242 58.8555C438.902 58.8555 439.715 58.8047 440.68 58.7031C441.661 58.5846 442.601 58.4069 443.498 58.1699V41.0312H450.658ZM476.232 70.2812H465.137L462.953 78H455.438L467.549 41.0312H474.023L485.906 78H478.391L476.232 70.2812ZM466.889 64.2129H474.557L470.773 50.6035L466.889 64.2129ZM516.203 66.4219C516.085 68.2839 515.678 69.9596 514.984 71.4492C514.307 72.9388 513.393 74.2083 512.242 75.2578C511.091 76.3073 509.72 77.1198 508.129 77.6953C506.538 78.2539 504.777 78.5332 502.848 78.5332C501.324 78.5332 499.911 78.3385 498.607 77.9492C497.321 77.543 496.161 76.9674 495.129 76.2227C494.181 75.5286 493.335 74.6908 492.59 73.709C491.862 72.7272 491.244 71.6439 490.736 70.459C490.245 69.2741 489.865 67.9707 489.594 66.5488C489.34 65.127 489.213 63.6204 489.213 62.0293V57.0527C489.213 55.5632 489.331 54.1497 489.568 52.8125C489.805 51.4583 490.161 50.2057 490.635 49.0547C491.176 47.6497 491.887 46.3971 492.768 45.2969C493.648 44.1966 494.646 43.2656 495.764 42.5039C496.762 41.8607 497.854 41.3698 499.039 41.0312C500.241 40.6758 501.527 40.498 502.898 40.498C504.93 40.498 506.732 40.7858 508.307 41.3613C509.898 41.9368 511.252 42.7578 512.369 43.8242C513.486 44.8906 514.367 46.194 515.01 47.7344C515.653 49.2747 516.059 51.0098 516.229 52.9395H509.119C509.051 51.8392 508.882 50.8743 508.611 50.0449C508.357 49.2155 507.985 48.5215 507.494 47.9629C506.986 47.4212 506.352 47.015 505.59 46.7441C504.845 46.4564 503.948 46.3125 502.898 46.3125C502.34 46.3125 501.815 46.3717 501.324 46.4902C500.85 46.6087 500.41 46.7865 500.004 47.0234C499.31 47.4297 498.717 48.0137 498.227 48.7754C497.753 49.5202 497.372 50.3919 497.084 51.3906C496.864 52.1693 496.703 53.0326 496.602 53.9805C496.5 54.9115 496.449 55.9186 496.449 57.002V62.0293C496.449 63.502 496.525 64.8223 496.678 65.9902C496.847 67.1413 497.101 68.1484 497.439 69.0117C497.676 69.6042 497.956 70.1289 498.277 70.5859C498.616 71.043 498.997 71.4238 499.42 71.7285C499.877 72.0671 500.385 72.321 500.943 72.4902C501.519 72.6426 502.154 72.7188 502.848 72.7188C503.779 72.7188 504.617 72.6003 505.361 72.3633C506.106 72.1263 506.741 71.7539 507.266 71.2461C507.79 70.7383 508.205 70.0866 508.51 69.291C508.814 68.4954 509.001 67.5391 509.068 66.4219H516.203ZM550.182 46.8457H538.781V78H531.621V46.8457H520.373V41.0312H550.182V46.8457ZM572.607 41.0312H579.768V78H572.607V54.4121L562.121 78H554.986V41.0312H562.121V64.6445L572.607 41.0312ZM610.725 61.8008H595.541V72.2363H613.289V78H588.381V41.0312H613.213V46.8457H595.541V56.1641H610.725V61.8008ZM629.799 66.7773C629.799 65.6094 629.824 64.6191 629.875 63.8066C629.943 62.9941 630.087 62.2578 630.307 61.5977C630.527 60.9544 630.857 60.362 631.297 59.8203C631.737 59.2617 632.355 58.6693 633.15 58.043C633.726 57.5182 634.301 56.9681 634.877 56.3926C635.452 55.8001 635.977 55.1908 636.451 54.5645C636.908 53.9551 637.281 53.3288 637.568 52.6855C637.856 52.0423 638 51.3991 638 50.7559C638 49.9772 637.89 49.3086 637.67 48.75C637.45 48.1745 637.137 47.7005 636.73 47.3281C636.307 46.9896 635.791 46.7357 635.182 46.5664C634.589 46.3971 633.904 46.3125 633.125 46.3125C632.516 46.3125 631.923 46.3971 631.348 46.5664C630.772 46.7188 630.264 46.9727 629.824 47.3281C629.367 47.6836 628.995 48.1406 628.707 48.6992C628.436 49.2578 628.292 49.9264 628.275 50.7051H621.191C621.208 48.9785 621.53 47.4805 622.156 46.2109C622.783 44.9245 623.629 43.8581 624.695 43.0117C625.762 42.1654 627.014 41.5391 628.453 41.1328C629.892 40.7096 631.449 40.498 633.125 40.498C635.004 40.498 636.688 40.7096 638.178 41.1328C639.667 41.556 640.928 42.1823 641.961 43.0117C642.977 43.8581 643.755 44.8991 644.297 46.1348C644.839 47.3704 645.109 48.8008 645.109 50.4258C645.109 51.6276 644.906 52.7279 644.5 53.7266C644.094 54.7083 643.569 55.6224 642.926 56.4688C642.283 57.332 641.546 58.153 640.717 58.9316C639.904 59.6934 639.083 60.4382 638.254 61.166C637.746 61.6738 637.348 62.1224 637.061 62.5117C636.773 62.901 636.57 63.2988 636.451 63.7051C636.316 64.1113 636.231 64.5599 636.197 65.0508C636.163 65.5247 636.146 66.1003 636.146 66.7773H629.799ZM628.758 74.4707C628.758 73.3535 629.122 72.4225 629.85 71.6777C630.577 70.916 631.585 70.5352 632.871 70.5352C634.124 70.5352 635.122 70.916 635.867 71.6777C636.629 72.4225 637.01 73.3535 637.01 74.4707C637.01 75.554 636.629 76.4681 635.867 77.2129C635.122 77.9408 634.124 78.3047 632.871 78.3047C631.585 78.3047 630.577 77.9408 629.85 77.2129C629.122 76.4681 628.758 75.554 628.758 74.4707ZM696.461 54.4883L703.646 64.3906V64.873L696.461 74.7754H691.865L697.984 64.6445L691.865 54.4883H696.461ZM728.941 54.4883L736.127 64.3906V64.873L728.941 74.7754H724.346L730.465 64.6445L724.346 54.4883H728.941ZM761.422 54.4883L768.607 64.3906V64.873L761.422 74.7754H756.826L762.945 64.6445L756.826 54.4883H761.422ZM793.902 54.4883L801.088 64.3906V64.873L793.902 74.7754H789.307L795.426 64.6445L789.307 54.4883H793.902ZM826.383 54.4883L833.568 64.3906V64.873L826.383 74.7754H821.787L827.906 64.6445L821.787 54.4883H826.383ZM858.863 54.4883L866.049 64.3906V64.873L858.863 74.7754H854.268L860.387 64.6445L854.268 54.4883H858.863ZM891.344 54.4883L898.529 64.3906V64.873L891.344 74.7754H886.748L892.867 64.6445L886.748 54.4883H891.344ZM923.824 54.4883L931.01 64.3906V64.873L923.824 74.7754H919.229L925.348 64.6445L919.229 54.4883H923.824ZM956.305 54.4883L963.49 64.3906V64.873L956.305 74.7754H951.709L957.828 64.6445L951.709 54.4883H956.305ZM988.785 54.4883L995.971 64.3906V64.873L988.785 74.7754H984.189L990.309 64.6445L984.189 54.4883H988.785ZM1021.27 54.4883L1028.45 64.3906V64.873L1021.27 74.7754H1016.67L1022.79 64.6445L1016.67 54.4883H1021.27ZM1053.75 54.4883L1060.93 64.3906V64.873L1053.75 74.7754H1049.15L1055.27 64.6445L1049.15 54.4883H1053.75ZM1086.23 54.4883L1093.41 64.3906V64.873L1086.23 74.7754H1081.63L1087.75 64.6445L1081.63 54.4883H1086.23ZM1118.71 54.4883L1125.89 64.3906V64.873L1118.71 74.7754H1114.11L1120.23 64.6445L1114.11 54.4883H1118.71ZM1151.19 54.4883L1158.37 64.3906V64.873L1151.19 74.7754H1146.59L1152.71 64.6445L1146.59 54.4883H1151.19ZM1183.67 54.4883L1190.85 64.3906V64.873L1183.67 74.7754H1179.07L1185.19 64.6445L1179.07 54.4883H1183.67ZM1216.15 54.4883L1223.33 64.3906V64.873L1216.15 74.7754H1211.55L1217.67 64.6445L1211.55 54.4883H1216.15Z" fill="black"/>
</svg>
