<svg width="650" height="85" viewBox="0 0 650 85" fill="none" xmlns="http://www.w3.org/2000/svg">
<g clip-path="url(#clip0_747_1931)">
<path d="M0 21.827C0 14.4357 4.71275 11.0218 9.30191 11.0218C13.8911 11.0218 18.6038 14.4357 18.6038 21.827C18.6038 29.2183 13.8911 32.4587 9.30191 32.4587C4.71275 32.4587 0 29.2183 0 21.827ZM0.897412 32.9356L0.166585 32.3287L17.5291 10.5449L18.2599 11.1518L0.897412 32.9356ZM17.2282 21.827C17.2282 15.7308 14.0577 11.8888 9.29654 11.8888C4.53542 11.8888 1.3703 15.7308 1.3703 21.827C1.3703 27.9232 4.54079 31.5971 9.29654 31.5971C14.0523 31.5971 17.2282 27.9232 17.2282 21.827Z" fill="black"/>
<path d="M41.5715 12.6637H33.6453L29.572 31.8952H25.9286L30.0019 12.6637H22.0703L22.7152 9.59668H42.2164L41.5715 12.6637Z" fill="black"/>
<path d="M48.8146 9.59668L46.6275 19.8816L58.4551 9.59668H63.5118L52.8396 18.5432L59.9974 31.8952H55.7951L50.1796 20.7866L45.6388 24.5906L44.0965 31.8952H40.4531L45.1659 9.59668H48.8093H48.8146Z" fill="black"/>
<path d="M69.9013 9.59676L69.2135 12.7505C71.1265 10.2741 73.6253 9.0332 76.7152 9.0332C79.3161 9.0332 81.3742 9.88396 82.8896 11.5855C84.405 13.287 85.1627 15.6063 85.1627 18.5433C85.1627 22.4069 84.1041 25.6961 81.9922 28.4164C79.875 31.1367 76.9893 32.5022 73.3351 32.5022C69.681 32.5022 67.1339 31.05 66.2203 28.1346L63.6463 40.495H60.0029L66.5159 9.59134H69.9013V9.59676ZM75.6028 12.019C73.8026 12.019 72.255 12.6747 70.9546 13.986C69.6541 15.2974 68.7352 16.8092 68.1925 18.5216C67.6497 20.234 67.3757 21.9571 67.3757 23.6858C67.3757 25.4144 67.913 26.8991 68.9824 27.9666C70.0518 29.0342 71.4919 29.5652 73.2921 29.5652C75.576 29.5652 77.5159 28.4923 79.1011 26.3464C80.6864 24.2005 81.4817 21.5562 81.4817 18.4132C81.4817 16.3703 80.9766 14.788 79.9609 13.6826C78.9453 12.5717 77.4944 12.019 75.6082 12.019H75.6028Z" fill="black"/>
<path d="M106.507 24.2872C106.507 26.4493 105.809 28.2592 104.406 29.7115C103.004 31.1691 101.005 31.8953 98.4039 31.8953H87.2158L91.8856 9.59673H95.486L93.6858 18.2831H99.2583C104.089 18.2831 106.502 20.2881 106.502 24.2926L106.507 24.2872ZM102.821 24.504C102.821 23.0951 102.294 22.1847 101.236 21.7837C100.548 21.4965 99.3336 21.3502 97.5925 21.3502H93.0087L91.4664 28.8282H97.5549C101.069 28.8282 102.826 27.3868 102.826 24.504H102.821ZM112.977 9.59131H116.621L111.908 31.8899H108.265L112.977 9.59131Z" fill="black"/>
<path d="M134.622 1.12158L132.736 10.1114H141.092L140.447 13.2219H132.048L126.734 38.6362H123.219L128.491 13.2219H120.221L120.866 10.1114H129.179L131.065 1.12158H134.622Z" fill="black"/>
<path d="M160.507 24.2872C160.507 26.4493 159.809 28.2592 158.406 29.7115C157.004 31.1691 155.005 31.8953 152.404 31.8953H141.216L145.886 9.59673H149.486L147.686 18.2831H153.258C158.089 18.2831 160.502 20.2881 160.502 24.2926L160.507 24.2872ZM156.821 24.504C156.821 23.0951 156.294 22.1847 155.236 21.7837C154.548 21.4965 153.334 21.3502 151.592 21.3502H147.009L145.466 28.8282H151.555C155.069 28.8282 156.826 27.3868 156.826 24.504H156.821ZM166.977 9.59131H170.621L165.908 31.8899H162.265L166.977 9.59131Z" fill="black"/>
<path d="M176.279 31.8952H171.395L176.107 9.59665H179.751L175.935 27.7498L189.563 9.59665H194.448L189.735 31.8952H186.092L189.95 13.6987L176.279 31.8952ZM192.782 1.12158C192.325 2.87729 191.444 4.31328 190.143 5.42415C188.843 6.53501 187.295 7.08773 185.495 7.08773C183.695 7.08773 182.303 6.52417 181.228 5.40247C180.159 4.28077 179.692 2.85019 179.837 1.12158H182.024C182.083 2.18909 182.416 3.01818 183.029 3.60883C183.641 4.19949 184.49 4.4921 185.581 4.4921C186.672 4.4921 187.709 4.18865 188.623 3.58716C189.536 2.98025 190.192 2.162 190.595 1.12158H192.782Z" fill="black"/>
<path d="M213.224 22.8188V20.8735C213.224 17.8497 213.181 14.994 213.095 12.794H209.107V11.9269L214.078 11.4067L214.508 11.6668L214.422 16.2891V22.8134C214.422 25.4903 214.465 29.9446 214.551 31.89H213.095C213.181 29.9446 213.224 25.4957 213.224 22.8134V22.8188ZM209.279 31.0284L213.568 30.7683H213.955L217.985 31.0284V31.89H209.285V31.0284H209.279ZM213.863 23.0789L225.094 11.7535H226.465L213.863 24.2873V23.0789ZM218.237 19.4917L219.135 18.5867L226.937 31.2072L225.954 30.7737L230.285 31.0338V31.8954H225.911L218.237 19.4917ZM219.909 11.7535H229.339V12.6151L224.627 12.8752H224.24L219.909 12.6151V11.7535Z" fill="black"/>
<path d="M232.51 21.8271C232.51 14.4358 237.223 11.0219 241.812 11.0219C246.401 11.0219 251.114 14.4358 251.114 21.8271C251.114 29.2184 246.401 32.4589 241.812 32.4589C237.223 32.4589 232.51 29.2184 232.51 21.8271ZM249.738 21.8271C249.738 15.7309 246.567 11.8889 241.806 11.8889C237.045 11.8889 233.88 15.7363 233.88 21.8271C233.88 27.9179 237.051 31.5973 241.806 31.5973C246.562 31.5973 249.738 27.9233 249.738 21.8271ZM243.354 7.56471C241.554 5.66269 239.797 3.76068 238.555 2.46557C237.695 1.56063 237.314 1.17047 237.314 0.736963C237.314 0.260105 237.658 0 238.045 0C238.475 0 238.733 0.346806 239.501 1.33845C240.699 2.89366 242.285 5.05578 243.832 7.17455L243.359 7.56471H243.354Z" fill="black"/>
<path d="M256.686 31.8952H253.043L257.756 9.59668H261.399L259.47 18.5432H270.529L272.458 9.59668H276.102L271.389 31.8952H267.745L269.847 21.6103H258.787L256.686 31.8952Z" fill="black"/>
<path d="M285.313 9.59668L283.126 19.8816L294.953 9.59668H300.01L289.338 18.5432L296.495 31.8952H292.293L286.678 20.7866L282.137 24.5906L280.595 31.8952H276.951L281.664 9.59668H285.307H285.313Z" fill="black"/>
<path d="M320.247 9.59668L307.473 32.5021C306.103 34.9244 305.088 36.5934 304.432 37.5146C302.804 39.7905 300.815 40.9284 298.472 40.9284C297.731 40.9284 296.86 40.7821 295.855 40.4949L296.586 37.3845C297.527 37.6717 298.258 37.818 298.773 37.818C299.203 37.818 299.596 37.7476 299.95 37.6013C300.305 37.455 300.66 37.1949 300.998 36.821C301.342 36.4471 301.589 36.149 301.75 35.9377C301.906 35.7209 302.159 35.3308 302.503 34.7726C302.847 34.2091 303.046 33.8894 303.105 33.8027L304.303 31.9006L300.402 9.6021H304.303L306.958 27.1917L316.26 9.6021H320.247V9.59668Z" fill="black"/>
<path d="M327.018 9.59676L326.33 12.7505C328.243 10.2741 330.742 9.0332 333.831 9.0332C336.432 9.0332 338.49 9.88396 340.006 11.5855C341.521 13.287 342.279 15.6063 342.279 18.5433C342.279 22.4069 341.22 25.6961 339.108 28.4164C336.991 31.1367 334.105 32.5022 330.451 32.5022C326.797 32.5022 324.25 31.05 323.337 28.1346L320.763 40.495H317.119L323.632 9.59134H327.018V9.59676ZM332.719 12.019C330.919 12.019 329.371 12.6747 328.071 13.986C326.77 15.2974 325.851 16.8092 325.309 18.5216C324.766 20.234 324.492 21.9571 324.492 23.6858C324.492 25.4144 325.029 26.8991 326.099 27.9666C327.168 29.0342 328.608 29.5652 330.408 29.5652C332.692 29.5652 334.632 28.4923 336.217 26.3464C337.803 24.2005 338.598 21.5562 338.598 18.4132C338.598 16.3703 338.093 14.788 337.077 13.6826C336.062 12.5717 334.611 12.019 332.724 12.019H332.719Z" fill="black"/>
<path d="M364.817 24.5909C364.075 27.1269 362.807 29.0831 361.023 30.4703C359.239 31.8521 357.073 32.5457 354.531 32.5457C351.705 32.5457 349.485 31.7221 347.889 30.0802C346.288 28.4383 345.487 26.1461 345.487 23.2091C345.487 19.3509 346.621 16.002 348.894 13.1625C351.167 10.3231 354.171 8.90332 357.917 8.90332C360.405 8.90332 362.388 9.57526 363.876 10.9137C365.359 12.2522 366.106 14.035 366.106 16.2513V16.6848H362.463V16.5114C362.463 15.07 362.038 13.9537 361.2 13.1625C360.356 12.3714 359.18 11.9758 357.664 11.9758C355.235 11.9758 353.215 13.0325 351.597 15.1512C349.985 17.27 349.174 19.9253 349.174 23.1278C349.174 25.1436 349.657 26.7096 350.63 27.8151C351.603 28.926 352.957 29.4787 354.703 29.4787C356.186 29.4787 357.487 29.0452 358.605 28.1836C359.717 27.322 360.534 26.1244 361.05 24.5963H364.822L364.817 24.5909Z" fill="black"/>
<path d="M180.864 54.1396L176.151 76.4382H172.508L176.581 57.2067H168.907L166.462 67.2316C165.635 70.6292 164.56 73.0785 163.249 74.5795C161.932 76.0806 160.347 76.8283 158.493 76.8283C157.493 76.8283 156.623 76.655 155.876 76.3081L156.521 73.5012C156.865 73.6746 157.461 73.7613 158.321 73.7613C160.293 73.7613 161.862 71.3553 163.034 66.5434L166.032 54.1396H180.864Z" fill="black"/>
<path d="M184.335 60.8374C184.679 58.4748 185.657 56.6758 187.269 55.4348C188.881 54.1939 191.09 53.5762 193.889 53.5762C196.404 53.5762 198.366 54.0314 199.784 54.9363C201.198 55.8467 201.907 57.1038 201.907 58.7187C201.907 59.3798 201.735 60.4635 201.391 61.9591L199.333 71.2091C199.22 71.6968 199.161 72.1899 199.161 72.6776C199.161 73.485 199.548 73.886 200.316 73.886C200.574 73.886 200.929 73.8264 201.386 73.7126L200.913 76.525C200.139 76.7851 199.381 76.9151 198.64 76.9151C197.726 76.9151 197.012 76.6984 196.496 76.2649C195.98 75.8314 195.722 75.2245 195.722 74.4496C195.722 74.1895 195.738 73.9456 195.765 73.7126C193.965 75.9614 191.52 77.0831 188.435 77.0831C186.237 77.0831 184.518 76.5358 183.292 75.4412C182.062 74.3466 181.449 72.8185 181.449 70.8569C181.449 69.6485 181.686 68.5972 182.159 67.7031C182.631 66.809 183.18 66.1208 183.808 65.6277C184.437 65.14 185.286 64.7336 186.361 64.4193C187.43 64.105 188.36 63.8882 189.144 63.769C189.929 63.6552 190.923 63.5523 192.121 63.4656C192.32 63.4385 192.664 63.406 193.148 63.3789C193.631 63.3518 193.986 63.3301 194.196 63.3138C194.411 63.2976 194.722 63.2651 195.136 63.2055C195.55 63.1459 195.851 63.0754 196.039 62.9887C196.227 62.902 196.469 62.7936 196.77 62.6636C197.071 62.5335 197.291 62.3764 197.436 62.1867C197.581 62.0025 197.726 61.7749 197.887 61.5148C198.043 61.2547 198.151 60.9458 198.21 60.5882C198.269 60.2251 198.296 59.8295 198.296 59.4014C198.296 58.5073 197.904 57.8245 197.119 57.3477C196.334 56.8708 195.227 56.6324 193.798 56.6324C192.143 56.6324 190.826 56.9521 189.854 57.5807C188.881 58.2147 188.199 59.2931 187.796 60.8212H184.324L184.335 60.8374ZM197.237 64.9449C196.668 65.606 194.996 66.0233 192.224 66.1967C191.423 66.2563 190.799 66.3105 190.359 66.3701C189.913 66.4297 189.316 66.5489 188.559 66.7385C187.801 66.9282 187.215 67.1558 186.801 67.4322C186.388 67.7085 186.006 68.1149 185.668 68.6622C185.324 69.2095 185.152 69.8598 185.152 70.6076C185.152 71.7293 185.528 72.618 186.286 73.2683C187.043 73.9185 188.08 74.2382 189.392 74.2382C191.589 74.2382 193.25 73.5663 194.362 72.2278C195.475 70.8894 196.308 69.0199 196.85 66.6302L197.237 64.9449Z" fill="black"/>
<path d="M205.809 53.836H236.627V54.7843H205.809V53.836ZM206.668 48.0433V47.1763H217.298V48.0433L212.284 48.3467H211.682L206.668 48.0433ZM212.284 75.273L217.298 75.5764V76.4435H206.668V75.5764L211.682 75.273H212.284ZM211.344 60.5771C211.344 56.0849 211.344 51.5872 211.258 47.1817H212.714C212.628 51.5872 212.628 56.0849 212.628 60.5771V61.7855C212.628 67.5349 212.628 72.0271 212.714 76.438H211.258C211.344 72.0325 211.344 67.5349 211.344 63.0426V60.5771ZM211.988 62.2623V61.314H230.463V62.2623H211.988ZM225.149 48.0433V47.1763H235.778V48.0433L230.764 48.3467H230.162L225.149 48.0433ZM230.764 75.273L235.778 75.5764V76.4435H225.149V75.5764L230.162 75.273H230.764ZM229.781 60.5771C229.781 56.0849 229.781 51.5872 229.695 47.1817H231.151C231.065 51.5872 231.065 56.0849 231.065 60.5771V63.0426C231.065 67.5349 231.065 72.0325 231.151 76.438H229.695C229.781 72.0325 229.781 67.5349 229.781 61.7855V60.5771Z" fill="black"/>
<path d="M257.713 83.5314H254.242L255.741 76.4436H239.023L237.524 83.5314H234.053L236.197 73.3765H238.599C239.572 72.0489 240.641 69.968 241.812 67.1286C242.984 64.2891 243.854 61.5472 244.424 58.8973L245.45 54.145H261.05L256.977 73.3765H259.847L257.702 83.5314H257.713ZM253.339 73.3765L256.767 57.2121H248.368L247.895 59.2442C247.267 61.9265 246.407 64.6413 245.321 67.3941C244.236 70.1469 243.247 72.141 242.366 73.3819H253.339V73.3765Z" fill="black"/>
<path d="M262.555 76.4436L267.267 54.145H270.911L266.838 73.3765H275.967L280.041 54.145H283.684L279.611 73.3765H288.741L292.814 54.145H296.457L291.745 76.4436H262.56H262.555Z" fill="black"/>
<path d="M299.929 60.8374C300.273 58.4748 301.251 56.6758 302.863 55.4348C304.475 54.1939 306.683 53.5762 309.483 53.5762C311.998 53.5762 313.959 54.0314 315.378 54.9363C316.791 55.8467 317.501 57.1038 317.501 58.7187C317.501 59.3798 317.329 60.4635 316.985 61.9591L314.927 71.2091C314.814 71.6968 314.755 72.1899 314.755 72.6776C314.755 73.485 315.142 73.886 315.91 73.886C316.168 73.886 316.523 73.8264 316.979 73.7126L316.507 76.525C315.733 76.7851 314.975 76.9151 314.234 76.9151C313.32 76.9151 312.605 76.6984 312.089 76.2649C311.574 75.8314 311.316 75.2245 311.316 74.4496C311.316 74.1895 311.332 73.9456 311.359 73.7126C309.558 75.9614 307.113 77.0831 304.029 77.0831C301.831 77.0831 300.111 76.5358 298.886 75.4412C297.656 74.3466 297.043 72.8185 297.043 70.8569C297.043 69.6485 297.279 68.5972 297.752 67.7031C298.225 66.809 298.773 66.1208 299.402 65.6277C300.031 65.14 300.88 64.7336 301.955 64.4193C303.024 64.105 303.954 63.8882 304.738 63.769C305.523 63.6552 306.517 63.5523 307.715 63.4656C307.914 63.4385 308.258 63.406 308.742 63.3789C309.225 63.3518 309.58 63.3301 309.789 63.3138C310.004 63.2976 310.316 63.2651 310.73 63.2055C311.144 63.1459 311.445 63.0754 311.633 62.9887C311.821 62.902 312.063 62.7936 312.363 62.6636C312.664 62.5335 312.885 62.3764 313.03 62.1867C313.175 62.0025 313.32 61.7749 313.481 61.5148C313.637 61.2547 313.744 60.9458 313.804 60.5882C313.863 60.2251 313.89 59.8295 313.89 59.4014C313.89 58.5073 313.497 57.8245 312.713 57.3477C311.928 56.8708 310.821 56.6324 309.392 56.6324C307.737 56.6324 306.42 56.9521 305.447 57.5807C304.475 58.2147 303.792 59.2931 303.389 60.8212H299.918L299.929 60.8374ZM312.831 64.9449C312.261 65.606 310.59 66.0233 307.817 66.1967C307.017 66.2563 306.393 66.3105 305.953 66.3701C305.507 66.4297 304.91 66.5489 304.152 66.7385C303.395 66.9282 302.809 67.1558 302.395 67.4322C301.981 67.7085 301.6 68.1149 301.261 68.6622C300.917 69.2095 300.745 69.8598 300.745 70.6076C300.745 71.7293 301.122 72.618 301.879 73.2683C302.637 73.9185 303.674 74.2382 304.985 74.2382C307.183 74.2382 308.844 73.5663 309.956 72.2278C311.068 70.8894 311.901 69.0199 312.444 66.6302L312.831 64.9449Z" fill="black"/>
<path d="M321.999 66.3268C321.999 58.9789 327.658 55.565 334.085 55.565V56.5187C327.013 56.5187 323.283 60.4094 323.283 66.2835C323.283 72.7211 327.572 76.0103 333.956 76.0103V77.0019C327.4 77.0019 321.999 73.5447 321.999 66.3268ZM333.698 76.6551L334.042 49.6855H334.901V76.8719L334.944 84.6534L333.918 85.0002L333.488 84.7401L333.703 76.6551H333.698ZM334.638 76.0049C342.57 76.0049 345.31 71.7673 345.31 66.1913C345.31 61.0489 342.865 56.5079 334.767 56.5079V55.5542C342.355 55.5542 346.595 59.5749 346.595 65.9258C346.595 73.8373 340.979 76.9911 334.638 76.9911V75.9995V76.0049Z" fill="black"/>
<path d="M348.658 56.8654C351.442 56.3885 354.274 56.1284 358.261 56.1284H365.935L365.978 57.2501L357.106 57.1634L348.75 57.6403L348.664 56.86L348.658 56.8654ZM356.418 72.1249C356.418 66.9824 356.547 61.7965 356.719 56.654H357.659V72.3416C357.659 75.2353 358.686 75.7988 360.018 75.7988C361.174 75.7988 361.732 75.5387 362.42 75.1052L362.678 75.6688C362.205 76.319 361.179 77.0072 359.852 77.0072C357.665 77.0072 356.423 75.8422 356.423 72.1249H356.418Z" fill="black"/>
<path d="M370.175 76.4436H366.531L371.244 54.145H374.887L372.958 63.0915H384.017L385.947 54.145H389.59L384.877 76.4436H381.234L383.335 66.1586H372.276L370.175 76.4436Z" fill="black"/>
<path d="M409.644 68.8356C409.644 70.9977 408.946 72.8076 407.543 74.2598C406.141 75.7175 404.142 76.4436 401.541 76.4436H390.353L395.022 54.1451H398.623L396.823 62.8315H402.395C407.226 62.8315 409.639 64.8364 409.639 68.841L409.644 68.8356ZM405.958 69.0523C405.958 67.6434 405.431 66.733 404.373 66.332C403.685 66.0449 402.47 65.8985 400.729 65.8985H396.145L394.603 73.3765H400.692C404.206 73.3765 405.963 71.9351 405.963 69.0523H405.958ZM416.114 54.1396H419.758L415.045 76.4382H411.401L416.114 54.1396Z" fill="black"/>
<path d="M442.004 54.1396L432.531 64.9015L438.146 76.4382H433.944L429.871 67.3616L422.412 76.4382H417.957L428.328 64.6414L423.444 54.1396H427.603L431.031 62.1758L437.63 54.1396H442.004Z" fill="black"/>
<path d="M466.476 53.4463C469.389 53.4463 471.667 54.2374 473.312 55.8252C474.956 57.4129 475.778 59.6888 475.778 62.6529C475.778 66.6032 474.644 70.0009 472.371 72.8512C470.098 75.7015 467.094 77.1321 463.349 77.1321C460.404 77.1321 458.126 76.2976 456.513 74.6286C454.901 72.9596 454.09 70.5969 454.09 67.5407C454.09 63.7096 455.234 60.4041 457.518 57.6242C459.802 54.8444 462.79 53.4517 466.476 53.4517V53.4463ZM463.736 74.1029C466.052 74.1029 468.013 73.0029 469.631 70.7974C471.243 68.592 472.054 65.9205 472.054 62.783C472.054 60.7672 471.554 59.2119 470.555 58.1173C469.555 57.0227 468.142 56.4754 466.31 56.4754C464.477 56.4754 462.983 57.0498 461.64 58.204C460.296 59.3583 459.313 60.7455 458.684 62.3765C458.056 64.0022 457.744 65.6983 457.744 67.454C457.744 69.5565 458.271 71.193 459.329 72.3581C460.388 73.5231 461.86 74.1083 463.741 74.1083L463.736 74.1029Z" fill="black"/>
<path d="M502.776 44.9332C502.604 45.5075 502.373 46.0278 502.088 46.4884C501.803 46.949 501.518 47.3283 501.233 47.6317C500.949 47.9352 500.546 48.2007 500.035 48.4283C499.519 48.6613 499.105 48.8401 498.794 48.9702C498.477 49.1002 497.988 49.214 497.316 49.317C496.644 49.42 496.166 49.485 495.881 49.5121C495.596 49.5392 495.064 49.5771 494.296 49.6205C493.522 49.6638 493.039 49.7017 492.84 49.7288C488.326 50.0431 485.139 53.0126 483.28 58.632H483.409C484.21 57.2502 485.343 56.1339 486.816 55.2831C488.288 54.4324 489.75 54.0097 491.211 54.0097C494.07 54.0097 496.29 54.7738 497.875 56.3019C499.46 57.83 500.255 60.0355 500.255 62.9129C500.255 66.8036 499.143 70.147 496.913 72.9377C494.683 75.7339 491.743 77.1319 488.084 77.1319C485.198 77.1319 482.979 76.3191 481.421 74.688C479.862 73.0624 479.083 70.7648 479.083 67.7953C479.083 66.847 479.212 65.4923 479.47 63.7311C480.383 57.9384 481.942 53.6737 484.14 50.9372C485.338 49.4416 486.719 48.3308 488.277 47.6101C489.836 46.8894 491.7 46.4558 493.871 46.315C496.241 46.1416 497.698 45.9248 498.246 45.6647C498.616 45.4642 498.901 45.2204 499.105 44.9277H502.792L502.776 44.9332ZM496.521 63.0429C496.521 61.1138 496.048 59.6236 495.107 58.567C494.167 57.5157 492.807 56.9901 491.034 56.9901C488.492 56.9901 486.472 58.0901 484.967 60.2956C483.468 62.501 482.716 64.972 482.716 67.7086C482.716 69.7244 483.221 71.2958 484.236 72.4175C485.252 73.5392 486.66 74.1028 488.46 74.1028C490.69 74.1028 492.587 73.0299 494.162 70.884C495.731 68.7381 496.521 66.1208 496.521 63.0375V63.0429Z" fill="black"/>
<path d="M510.278 57.2067H503.808L504.452 54.1396H514.566L512.766 62.8261H519.279C524.136 62.8261 526.565 64.831 526.565 68.8356C526.565 70.9977 525.856 72.8076 524.443 74.2598C523.029 75.7175 521.036 76.4436 518.462 76.4436H506.247L510.278 57.2121V57.2067ZM522.836 69.0469C522.836 67.638 522.32 66.7276 521.294 66.3266C520.579 66.0394 519.365 65.8931 517.65 65.8931H512.078L510.493 73.3711H517.564C521.079 73.3711 522.836 71.9297 522.836 69.0469Z" fill="black"/>
<path d="M545.981 76.0969C549.839 76.0969 553.354 74.1949 555.756 71.2579H557.986C555.159 74.7151 550.785 76.964 545.9 76.964C537.501 76.964 530.73 70.483 530.73 62.4415C530.73 54.3999 537.501 47.9189 545.9 47.9189C554.3 47.9189 561.07 54.3999 561.07 62.4415V62.7883H536.47C536.384 62.7883 536.298 62.875 536.298 62.9617V70.9165C536.298 71.2633 536.47 71.5234 536.642 71.7835C538.958 74.4604 542.3 76.1024 545.986 76.1024L545.981 76.0969ZM555.326 62.0079C555.498 62.0079 555.584 61.9212 555.584 61.7478V53.793C555.584 53.4462 555.412 53.0994 555.154 52.8447C552.752 50.3357 549.496 48.7805 545.981 48.7805C542.467 48.7805 539.038 50.4224 536.636 53.0181C536.464 53.2782 536.292 53.625 536.292 53.9664V61.7478C536.292 61.9212 536.378 62.0079 536.464 62.0079H555.321H555.326Z" fill="black"/>
<path d="M571.184 54.1396L568.997 64.4246L580.824 54.1396H585.881L575.209 63.0862L582.366 76.4382H578.164L572.549 65.3296L568.008 69.1336L566.466 76.4382H562.822L567.535 54.1396H571.178H571.184Z" fill="black"/>
<path d="M605.21 57.2067H597.284L593.211 76.4382H589.567L593.641 57.2067H585.709L586.354 54.1396H605.855L605.21 57.2067Z" fill="black"/>
<path d="M617.424 53.4463C620.337 53.4463 622.615 54.2374 624.26 55.8252C625.904 57.4129 626.726 59.6888 626.726 62.6529C626.726 66.6032 625.593 70.0009 623.319 72.8512C621.046 75.7015 618.042 77.1321 614.297 77.1321C611.352 77.1321 609.074 76.2976 607.462 74.6286C605.85 72.9596 605.038 70.5969 605.038 67.5407C605.038 63.7096 606.183 60.4041 608.467 57.6242C610.75 54.8444 613.738 53.4517 617.424 53.4517V53.4463ZM614.684 74.1029C617 74.1029 618.961 73.0029 620.579 70.7974C622.191 68.592 623.002 65.9205 623.002 62.783C623.002 60.7672 622.503 59.2119 621.503 58.1173C620.504 57.0227 619.09 56.4754 617.258 56.4754C615.425 56.4754 613.932 57.0498 612.588 58.204C611.245 59.3583 610.261 60.7455 609.633 62.3765C609.004 64.0022 608.692 65.6983 608.692 67.454C608.692 69.5565 609.219 71.193 610.277 72.3581C611.336 73.5231 612.808 74.1083 614.689 74.1083L614.684 74.1029Z" fill="black"/>
<path d="M633.326 54.1396H642.67C643.729 54.1396 644.637 54.1993 645.39 54.3131C646.147 54.4268 646.905 54.649 647.663 54.985C648.42 55.3155 648.995 55.8412 649.398 56.5619C649.796 57.2826 650 58.2038 650 59.3255C650 60.7073 649.629 61.8994 648.888 62.8911C648.146 63.8827 647.115 64.5276 645.803 64.8148C646.83 65.102 647.63 65.6493 648.205 66.4567C648.775 67.2641 649.06 68.2286 649.06 69.3503C649.06 71.3987 648.361 73.0948 646.959 74.4495C646.76 74.65 646.529 74.8451 646.271 75.0347C646.013 75.2244 645.793 75.3707 645.605 75.4899C645.416 75.6037 645.164 75.7121 644.831 75.815C644.503 75.918 644.261 76.0047 644.1 76.0751C643.944 76.1456 643.67 76.2052 643.283 76.2485C642.896 76.2919 642.649 76.3298 642.531 76.3569C642.418 76.384 642.128 76.4057 641.671 76.4219C641.214 76.4382 640.951 76.4436 640.876 76.4436H628.64L633.309 54.1451L633.326 54.1396ZM634.352 66.1966L632.853 73.4578H638.898C640.295 73.4578 641.456 73.3711 642.37 73.1977C643.256 72.9972 643.982 72.5366 644.557 71.8159C645.126 71.0952 645.416 70.2607 645.416 69.307C645.416 67.2316 644.143 66.1966 641.601 66.1966H634.357H634.352ZM636.324 57.12L634.954 63.2596H642.198C643.428 63.2596 644.428 62.9669 645.196 62.3763C645.97 61.7856 646.351 60.8699 646.351 59.6344C646.351 59.1467 646.249 58.7348 646.051 58.4043C645.852 58.0737 645.631 57.8299 645.384 57.6673C645.142 57.5102 644.793 57.3855 644.336 57.2988C643.88 57.2121 643.509 57.1634 643.224 57.1471C642.939 57.1308 642.552 57.1254 642.069 57.1254H636.324V57.12Z" fill="black"/>
</g>
<defs>
<clipPath id="clip0_747_1931">
<rect width="650" height="85" fill="white"/>
</clipPath>
</defs>
</svg>
