<svg width="761" height="293" viewBox="0 0 761 293" fill="none" xmlns="http://www.w3.org/2000/svg">
<g clip-path="url(#clip0_747_1967)">
<path d="M0 82.4284C2.28968 82.2694 3.87973 81.697 4.78606 80.7112C5.69239 79.7253 6.13761 78.0876 6.13761 75.8138V9.44478C6.13761 7.1551 5.67649 5.53324 4.78606 4.54741C3.87973 3.56157 2.28968 2.98915 0 2.83014V1.30369H19.1284V27.5237H24.9162C29.0026 27.5237 32.7551 26.6651 36.1419 24.9319C39.5288 23.1988 43.1064 20.9886 46.8907 18.3173L66.7187 4.61101C69.9465 2.32132 73.1743 1.19238 76.4021 1.19238C78.9144 1.19238 81.2836 1.93971 83.4938 3.43436L89.8699 7.80702V8.74516L88.8045 8.39535C88.089 8.07733 87.2622 7.91833 86.3241 7.91833C84.5909 7.91833 83.0008 8.39535 81.538 9.33348C80.0751 10.2716 78.5646 11.3052 76.9904 12.4023L52.0743 29.1774H51.5973L85.0202 51.9629C87.3894 53.6166 88.8999 55.6519 89.5678 58.0529C90.2356 60.4538 89.7109 62.9184 87.9777 65.4307L77.5788 80.902C76.5611 82.3966 75.4004 83.4938 74.0965 84.2093C72.7927 84.9248 71.4411 85.2747 70.026 85.2747C69.0879 85.2747 68.102 85.1156 67.0685 84.7976C66.0509 84.4796 65.065 83.9708 64.111 83.2553L40.4987 66.2576C39.7037 65.6215 38.7814 64.8742 37.7161 64.0156C36.6508 63.1569 35.5377 62.346 34.3452 61.5987C33.1685 60.8514 31.9601 60.1994 30.7358 59.6429C29.5114 59.0864 28.3984 58.8161 27.3648 58.8161H26.538V57.1624H48.7352L73.063 73.9375C74.8757 75.1142 76.4021 75.7025 77.6742 75.7025C78.6918 75.7025 79.5822 75.4322 80.3296 74.8757C81.0769 74.3192 81.7288 73.6195 82.2853 72.745L82.6351 72.268C83.3507 70.9323 83.5415 69.5331 83.2234 68.0702C82.9054 66.6074 81.7606 65.224 79.8048 63.8725L39.7991 36.603C38.1454 35.4263 36.6508 34.3769 35.3151 33.4706C33.9795 32.5642 32.6915 31.7851 31.4831 31.1014C30.2587 30.4335 29.0185 29.9406 27.7623 29.6226C26.5062 29.3046 25.1229 29.1456 23.6282 29.1456H19.1443V83.9708H0V82.4284Z" fill="black"/>
<path d="M102.272 1.30371H134.63C137.142 1.30371 139.782 1.73303 142.549 2.60756C145.299 3.48209 147.7 4.61103 149.751 6.02618L171.71 21.0204C173.761 22.4356 175.415 24.3278 176.671 26.681C177.927 29.0343 178.563 31.483 178.563 33.9953V83.9549H146.206C143.693 83.9549 141.054 83.5256 138.287 82.6511C135.536 81.7924 133.135 80.6476 131.084 79.2325L109.126 64.2382C107.074 62.8231 105.421 60.9309 104.165 58.5617C102.908 56.1925 102.272 53.7597 102.272 51.2474V1.30371ZM115.263 2.95737V48.1786C115.263 49.5938 115.613 50.9771 116.329 52.3128C117.044 53.6484 117.982 54.7615 119.159 55.6201L145.967 73.9217C147.859 75.2573 149.513 76.434 150.928 77.4675C152.343 78.4851 153.711 79.3597 154.999 80.0593C156.303 80.7748 157.702 81.3154 159.196 81.7129C160.691 82.1105 162.456 82.3013 164.507 82.3013H165.573V37.08C165.573 35.6649 165.223 34.2815 164.507 32.9459C163.792 31.6102 162.854 30.5131 161.677 29.6385L134.869 11.337C132.976 10.0013 131.323 8.82469 129.908 7.79115C128.492 6.77351 127.125 5.89898 125.837 5.19935C124.549 4.49973 123.134 3.94321 121.639 3.54569C120.145 3.14818 118.364 2.95737 116.329 2.95737H115.263Z" fill="black"/>
<path d="M190.377 3.06868V1.30371H209.744V30.7039H234.898L248.955 40.276C250.29 41.1506 251.53 42.0092 252.675 42.8678C253.82 43.7424 254.981 44.5215 256.158 45.237C257.334 45.9525 258.558 46.525 259.815 46.9543C261.071 47.3836 262.486 47.6062 264.06 47.6062H264.299V25.8701C264.299 24.455 263.949 23.0716 263.233 21.736C262.518 20.4003 261.58 19.3032 260.403 18.4286L250.243 11.337C246.856 9.04729 243.85 7.09152 241.211 5.43786C238.571 3.7842 236.314 2.95737 234.421 2.95737H233.833V1.30371H257.811L270.452 9.92182C272.583 11.337 274.252 13.2132 275.477 15.5347C276.701 17.8562 277.305 20.2731 277.305 22.8013V75.8138C277.305 78.342 277.798 79.9639 278.784 80.7112C279.77 81.4585 281.408 81.9514 283.681 82.19V83.9549H264.314V49.244H239.51L225.454 39.6718C224.197 38.8132 222.973 37.9386 221.796 37.08C220.62 36.2214 219.427 35.4264 218.251 34.7108C217.074 33.9953 215.85 33.4388 214.593 32.9936C213.337 32.5643 211.922 32.3416 210.348 32.3416H209.76V59.3885C209.76 60.8037 210.11 62.187 210.825 63.5227C211.541 64.8583 212.479 65.9714 213.655 66.83L223.816 73.9217C227.203 76.2113 230.208 78.1671 232.847 79.8208C235.487 81.4744 237.745 82.3013 239.637 82.3013H240.225V83.9549H216.247L203.606 75.3368C201.476 73.9217 199.806 72.0454 198.582 69.7239C197.357 67.4024 196.753 64.9855 196.753 62.4573V9.44481C196.753 6.93252 196.26 5.29476 195.274 4.54743C194.288 3.8001 192.651 3.30718 190.377 3.06868Z" fill="black"/>
<path d="M294.892 82.4284C297.181 82.2694 298.771 81.697 299.678 80.7112C300.584 79.7253 301.029 78.0876 301.029 75.8138V9.44478C301.029 7.1551 300.568 5.53324 299.678 4.54741C298.771 3.56157 297.181 2.98915 294.892 2.83014V1.30369H314.02V27.5237H319.808C323.894 27.5237 327.647 26.6651 331.034 24.9319C334.42 23.1988 337.998 20.9886 341.782 18.3173L361.626 4.61101C364.854 2.32132 368.082 1.19238 371.31 1.19238C373.822 1.19238 376.191 1.93971 378.401 3.43436L384.777 7.80702V8.74516L383.712 8.39535C382.997 8.07733 382.17 7.91833 381.232 7.91833C379.498 7.91833 377.908 8.39535 376.445 9.33348C374.983 10.2716 373.472 11.3052 371.898 12.4023L346.982 29.1774H346.505L379.928 51.9629C382.297 53.6166 383.807 55.6519 384.475 58.0529C385.143 60.4538 384.618 62.9184 382.885 65.4307L372.486 80.902C371.469 82.3966 370.308 83.4938 369.004 84.2093C367.7 84.9248 366.349 85.2747 364.933 85.2747C363.995 85.2747 363.01 85.1156 361.976 84.7976C360.958 84.4796 359.973 83.9708 359.018 83.2553L335.406 66.2576C334.611 65.6215 333.689 64.8742 332.624 64.0156C331.558 63.1569 330.445 62.346 329.253 61.5987C328.076 60.8514 326.868 60.1994 325.643 59.6429C324.419 59.0864 323.306 58.8161 322.272 58.8161H321.446V57.1624H343.643L367.97 73.9375C369.783 75.1142 371.31 75.7025 372.582 75.7025C373.599 75.7025 374.49 75.4322 375.237 74.8757C375.984 74.3192 376.636 73.6195 377.193 72.745L377.543 72.268C378.258 70.9323 378.449 69.5331 378.131 68.0702C377.813 66.6074 376.668 65.224 374.712 63.8725L334.675 36.5871C333.021 35.4104 331.526 34.361 330.191 33.4547C328.855 32.5483 327.567 31.7692 326.359 31.0855C325.134 30.4176 323.894 29.9247 322.638 29.6067C321.382 29.2887 319.999 29.1297 318.504 29.1297H314.02V83.9708H294.892V82.4284Z" fill="black"/>
<path d="M394.795 57.1624H410.155C412.667 57.1624 415.307 57.5917 418.073 58.4662C420.824 59.3407 423.225 60.4697 425.276 61.8848L442.878 73.9375C444.77 75.2731 446.408 76.4498 447.776 77.4833C449.159 78.5009 450.495 79.3755 451.798 80.0751C453.102 80.7906 454.422 81.3313 455.758 81.7288C457.093 82.1263 458.636 82.3171 460.369 82.3171H461.434V50.8975H437.106C434.594 50.8975 431.955 50.4841 429.188 49.6573C426.437 48.8305 424.036 47.7015 421.985 46.2864L403.095 33.2956C400.726 31.6419 399.215 29.6226 398.547 27.2057C397.88 24.8047 398.404 22.3401 400.138 19.8278L410.536 4.35655C411.554 2.86189 412.715 1.76475 414.019 1.04923C415.323 0.3337 416.642 -0.0161133 417.978 -0.0161133C419.95 -0.0161133 421.953 0.651711 424.004 1.98736L440.891 13.563C444.436 15.9322 447.124 17.6971 448.984 18.8738C450.828 20.0504 452.307 20.6387 453.42 20.6387H454.136V22.2924H439.253C436.741 22.2924 434.133 21.8631 431.462 20.9886C428.79 20.1299 426.421 19.0169 424.37 17.6812L415.036 11.3051C413.303 10.1285 411.777 9.54014 410.425 9.54014C409.408 9.54014 408.517 9.81045 407.77 10.367C407.022 10.9235 406.371 11.6231 405.814 12.4976L405.464 12.9747C404.749 14.3103 404.558 15.7096 404.876 17.1724C405.194 18.6353 406.339 20.0345 408.294 21.3702L438.299 41.8024C441.527 44.1716 444.309 46.0002 446.631 47.2881C448.952 48.592 451.576 49.2439 454.486 49.2439H461.45V1.30363H480.578V2.84599C478.289 3.005 476.699 3.57742 475.792 4.56325C474.886 5.54909 474.441 7.18685 474.441 9.46063V75.8138C474.441 78.1034 474.886 79.7253 475.792 80.7111C476.699 81.697 478.289 82.2694 480.578 82.4284V83.9707H443.149C440.636 83.9707 437.997 83.5414 435.23 82.6669C432.479 81.8083 430.078 80.6634 428.027 79.2483L407.945 65.4307C407.15 64.8742 406.243 64.2381 405.226 63.4749C404.208 62.7276 403.143 61.9961 402.03 61.2965C400.917 60.5969 399.819 59.9927 398.722 59.5316C397.625 59.0545 396.592 58.816 395.654 58.816H394.827V57.1624H394.795Z" fill="black"/>
<path d="M492.344 82.4285C494.634 82.2695 496.224 81.697 497.13 80.7112C498.036 79.7254 498.482 78.0876 498.482 75.8138V9.44481C498.482 7.15512 498.021 5.53327 497.13 4.54743C496.224 3.56159 494.634 2.98917 492.344 2.83017V1.30371H537.343L573.119 25.7429C575.488 27.3966 576.998 29.4318 577.666 31.8328C578.334 34.2338 577.809 36.6984 576.076 39.2107L565.677 54.682C564.66 56.1766 563.499 57.2738 562.195 57.9893C560.891 58.7048 559.54 59.0546 558.125 59.0546C557.186 59.0546 556.201 58.8956 555.167 58.5776C554.149 58.2596 553.164 57.7508 552.21 57.0352L527.882 40.2601C526.149 39.0835 524.638 38.0182 523.334 37.0641C522.03 36.126 520.774 35.3151 519.55 34.6472C518.326 33.9794 517.101 33.4706 515.893 33.1049C514.668 32.7551 513.269 32.5802 511.695 32.5802H511.456V83.9708H492.328V82.4285H492.344ZM511.472 2.95737V30.9424H536.866L561.193 47.7175C563.006 48.8941 564.532 49.4825 565.805 49.4825C566.822 49.4825 567.713 49.2122 568.46 48.6556C569.207 48.0991 569.859 47.3995 570.416 46.525L570.765 46.0479C571.481 44.7123 571.672 43.313 571.354 41.8502C571.036 40.3873 569.891 39.004 567.935 37.6524L527.898 10.367C526.244 9.1904 524.749 8.14096 523.414 7.23463C522.078 6.32829 520.79 5.54917 519.582 4.86544C518.357 4.19762 517.117 3.7047 515.861 3.38669C514.605 3.06868 513.221 2.90967 511.727 2.90967H511.488L511.472 2.95737Z" fill="black"/>
<path d="M589.067 1.30371H629.693C632.206 1.30371 634.845 1.73303 637.612 2.60756C640.363 3.48209 642.764 4.61103 644.815 6.02618L669.031 22.5628C671.4 24.2164 672.863 26.2199 673.467 28.5891C674.072 30.9583 673.483 33.3911 671.75 35.9034L667.139 42.8678H666.551L666.662 42.2795C666.98 40.7849 666.916 39.322 666.487 37.9068C666.058 36.4917 664.849 35.1083 662.878 33.7727L631.108 12.1638C629.216 10.8282 627.388 9.60381 625.623 8.50667C623.858 7.40953 622.093 6.4396 620.376 5.61277C618.642 4.78594 616.846 4.13401 615.001 3.657C613.157 3.17998 611.201 2.94147 609.15 2.94147H608.434V57.0352H634.893L658.632 73.4446C659.348 74.0012 660.111 74.3828 660.938 74.6213C661.765 74.8598 662.576 74.9711 663.355 74.9711C664.929 74.9711 666.265 74.5736 667.378 73.7945L668.443 73.0789H669.031L663.72 80.7589C661.669 83.6687 659.157 85.1316 656.168 85.1316C655.23 85.1316 654.244 84.9726 653.21 84.6546C652.193 84.3365 651.207 83.8277 650.253 83.1122L625.925 66.3371C624.192 65.1604 622.681 64.0951 621.377 63.1411C620.073 62.187 618.817 61.392 617.593 60.7242C616.369 60.0564 615.144 59.5475 613.936 59.1818C612.711 58.832 611.312 58.6571 609.738 58.6571H595.444V9.44481C595.444 6.93252 594.951 5.29476 593.965 4.54743C592.979 3.8001 591.341 3.30718 589.067 3.06868V1.30371Z" fill="black"/>
<path d="M0.587891 105.23H32.9455C35.4578 105.23 38.0973 105.66 40.864 106.534C43.6148 107.409 46.0157 108.538 48.0669 109.953L70.0256 124.947C72.0767 126.362 73.7304 128.254 74.9865 130.608C76.2427 132.961 76.8787 135.41 76.8787 137.922V187.881H44.5211C42.0088 187.881 39.3693 187.452 36.6026 186.578C33.8518 185.719 31.4508 184.574 29.3997 183.159L7.44102 168.165C5.38985 166.75 3.7362 164.857 2.48006 162.488C1.22391 160.119 0.587891 157.686 0.587891 155.174V105.214V105.23ZM13.5786 106.884V152.121C13.5786 153.536 13.9284 154.92 14.644 156.255C15.3595 157.591 16.2976 158.704 17.4743 159.563L44.2826 177.864C46.1747 179.2 47.8284 180.376 49.2435 181.41C50.6587 182.428 52.0261 183.302 53.3141 184.002C54.6179 184.717 56.0172 185.258 57.5118 185.655C59.0065 186.053 60.7714 186.244 62.8226 186.244H63.888V141.007C63.888 139.591 63.5381 138.208 62.8226 136.872C62.1071 135.537 61.169 134.44 59.9923 133.565L33.184 115.264C31.2918 113.928 29.6382 112.751 28.223 111.718C26.8079 110.7 25.4404 109.826 24.1525 109.126C22.8645 108.426 21.4494 107.87 19.9548 107.472C18.4601 107.075 16.6792 106.884 14.644 106.884H13.5786Z" fill="black"/>
<path d="M89.2815 186.355C91.5712 186.196 93.1613 185.624 94.0676 184.638C94.9739 183.652 95.4191 182.014 95.4191 179.74V113.371C95.4191 111.082 94.958 109.46 94.0676 108.474C93.1613 107.488 91.5712 106.916 89.2815 106.757V105.214H134.28L170.056 129.654C172.425 131.307 173.936 133.342 174.604 135.743C175.272 138.144 174.747 140.609 173.014 143.121L162.615 158.593C161.597 160.087 160.436 161.184 159.133 161.9C157.829 162.615 156.477 162.965 155.062 162.965C154.124 162.965 153.138 162.806 152.105 162.488C151.087 162.17 150.101 161.661 149.147 160.946L124.819 144.171C123.086 142.994 121.576 141.929 120.272 140.975C118.968 140.037 117.712 139.226 116.487 138.558C115.263 137.89 114.039 137.381 112.83 137.016C111.606 136.666 110.207 136.491 108.632 136.491H108.394V187.866H89.2656V186.323L89.2815 186.355ZM108.41 106.868V134.853H133.803L158.131 151.628C159.944 152.805 161.47 153.393 162.742 153.393C163.76 153.393 164.65 153.123 165.397 152.566C166.145 152.01 166.797 151.31 167.353 150.436L167.703 149.959C168.419 148.623 168.609 147.224 168.291 145.761C167.973 144.298 166.828 142.915 164.873 141.563L124.835 114.278C123.181 113.101 121.687 112.052 120.351 111.145C119.016 110.239 117.728 109.46 116.519 108.776C115.295 108.108 114.055 107.615 112.798 107.297C111.542 106.979 110.159 106.82 108.664 106.82H108.426L108.41 106.868Z" fill="black"/>
<path d="M220.954 105.23C223.466 105.23 226.105 105.66 228.872 106.534C231.623 107.409 234.024 108.538 236.075 109.953L260.292 126.489C262.661 128.143 264.124 130.146 264.728 132.516C265.316 134.885 264.744 137.318 263.011 139.83L258.399 146.794H257.811L257.922 146.206C258.241 144.711 258.177 143.249 257.748 141.833C257.318 140.418 256.11 139.035 254.154 137.699L222.385 116.09C218.6 113.419 215.023 111.209 211.636 109.476C208.249 107.743 204.513 106.884 200.41 106.884H198.995V134.63H228.045L251.546 150.69H230.049L217.408 142.072C215.595 140.816 214.085 139.814 212.86 139.067C211.636 138.319 210.475 137.731 209.378 137.302C208.281 136.872 207.136 136.586 205.96 136.475C204.783 136.364 203.288 136.3 201.476 136.3H198.995V160.978H227.807L251.546 177.387C252.262 177.944 253.025 178.325 253.852 178.564C254.679 178.802 255.49 178.914 256.269 178.914C257.922 178.914 259.258 178.516 260.276 177.737L261.341 177.021H261.929L256.619 184.701C254.647 187.611 252.135 189.074 249.066 189.074C248.128 189.074 247.142 188.915 246.108 188.597C245.091 188.279 244.105 187.77 243.151 187.055L218.823 170.28C217.09 169.103 215.579 168.038 214.275 167.084C212.972 166.145 211.716 165.334 210.491 164.667C209.267 163.999 208.042 163.49 206.834 163.124C205.61 162.774 204.21 162.6 202.636 162.6H185.988V113.355C185.988 110.843 185.496 109.205 184.51 108.458C183.524 107.711 181.886 107.218 179.612 106.979V105.214H220.954V105.23Z" fill="black"/>
<path d="M273.744 105.23H292.872V113.848L301.618 107.822C303.192 106.725 304.575 105.85 305.752 105.23C306.929 104.594 308.185 104.292 309.536 104.292H309.886C311.619 104.371 313.352 105.008 315.086 106.184L351.577 131.228V179.772C351.577 182.3 352.07 183.922 353.056 184.669C354.042 185.417 355.68 185.91 357.953 186.148V187.913H338.587V137.954L304.814 114.452C302.842 113.037 300.87 112.322 298.915 112.322C297.182 112.322 295.75 112.958 294.606 114.214C293.461 115.47 292.888 117.489 292.888 120.24V187.913H273.76V186.371C276.05 186.212 277.64 185.639 278.546 184.654C279.452 183.668 279.898 182.03 279.898 179.756V113.387C279.898 111.097 279.437 109.476 278.546 108.49C277.64 107.504 276.05 106.931 273.76 106.772V105.23H273.744Z" fill="black"/>
<path d="M395.145 105.23H435.77C438.283 105.23 440.922 105.659 443.689 106.534C446.44 107.408 448.841 108.537 450.892 109.953L475.108 126.489C477.478 128.143 478.94 130.146 479.545 132.515C480.149 134.885 479.561 137.317 477.827 139.83L473.216 146.794H472.628L472.739 146.206C473.057 144.711 472.994 143.248 472.564 141.833C472.135 140.418 470.927 139.035 468.955 137.699L437.186 116.09C435.293 114.754 433.465 113.53 431.7 112.433C429.935 111.336 428.17 110.366 426.453 109.539C424.72 108.712 422.923 108.06 421.078 107.583C419.234 107.106 417.278 106.868 415.227 106.868H414.511V160.962H440.97L464.709 177.371C465.425 177.927 466.188 178.309 467.015 178.548C467.842 178.786 468.653 178.897 469.432 178.897C471.006 178.897 472.342 178.5 473.455 177.721L474.52 177.005H475.108L469.798 184.685C467.746 187.595 465.234 189.058 462.245 189.058C461.307 189.058 460.321 188.899 459.287 188.581C458.27 188.263 457.284 187.754 456.33 187.039L432.002 170.263C430.269 169.087 428.758 168.021 427.454 167.067C426.151 166.113 424.894 165.318 423.67 164.651C422.446 163.983 421.221 163.474 420.013 163.108C418.789 162.758 417.389 162.583 415.815 162.583H401.521V113.339C401.521 110.827 401.028 109.189 400.042 108.442C399.056 107.695 397.418 107.202 395.145 106.963V105.198V105.23Z" fill="black"/>
<path d="M487.384 106.995V105.23H530.49C533.002 105.23 535.642 105.659 538.409 106.534C541.159 107.408 543.56 108.537 545.612 109.952L567.586 124.947C569.637 126.362 571.291 128.254 572.547 130.607C573.803 132.976 574.439 135.409 574.439 137.922V181.728C574.598 183.54 575.282 184.685 576.506 185.146C577.731 185.623 579.13 185.941 580.704 186.084V187.849H561.449V153.123H536.532L522.476 143.55C521.22 142.692 519.996 141.817 518.819 140.959C517.643 140.1 516.45 139.305 515.273 138.589C514.097 137.874 512.872 137.317 511.616 136.872C510.36 136.443 508.945 136.22 507.371 136.22H506.782V163.267C506.782 164.682 507.132 166.066 507.848 167.401C508.563 168.737 509.501 169.85 510.678 170.709L520.839 177.8C524.225 180.09 527.231 182.046 529.87 183.699C532.51 185.353 534.767 186.18 536.66 186.18H537.248V187.833H513.27L500.629 179.215C498.498 177.8 496.829 175.924 495.604 173.602C494.38 171.281 493.776 168.864 493.776 166.336V113.307C493.776 110.795 493.283 109.157 492.297 108.41C491.311 107.663 489.673 107.17 487.4 106.931L487.384 106.995ZM506.751 134.63H531.905L545.961 144.202C547.297 145.077 548.537 145.935 549.682 146.794C550.827 147.669 551.988 148.448 553.164 149.163C554.341 149.879 555.565 150.451 556.821 150.881C558.078 151.31 559.493 151.532 561.067 151.532H561.417V141.022C561.417 139.607 561.067 138.224 560.351 136.888C559.636 135.552 558.698 134.455 557.521 133.581L531.889 116.106C528.185 113.435 524.75 111.288 521.554 109.666C518.374 108.06 514.765 107.249 510.742 107.249H506.719V134.646L506.751 134.63Z" fill="black"/>
<path d="M590.721 186.355C593.01 186.196 594.6 185.624 595.507 184.638C596.413 183.652 596.858 182.014 596.858 179.74V113.371C596.858 111.082 596.397 109.46 595.507 108.474C594.6 107.488 593.01 106.916 590.721 106.757V105.214H609.849V160.962H633L657.328 177.737C659.141 178.914 660.667 179.502 661.939 179.502C662.957 179.502 663.847 179.232 664.595 178.675C665.342 178.119 665.994 177.419 666.55 176.544L666.9 176.067C667.616 174.732 667.807 173.332 667.489 171.87C667.171 170.407 666.026 169.023 664.07 167.672L633.016 146.54V128.7H634.67V129.049C634.67 129.844 634.892 130.592 635.322 131.291C635.751 132.007 636.308 132.643 636.975 133.247C637.643 133.835 638.359 134.408 639.106 134.964C639.853 135.521 640.505 135.982 641.062 136.379L669.285 155.746C671.654 157.4 673.165 159.435 673.833 161.836C674.501 164.237 673.976 166.702 672.243 169.214L661.844 184.685C660.826 186.18 659.665 187.277 658.362 187.993C657.058 188.708 655.706 189.058 654.291 189.058C653.353 189.058 652.367 188.899 651.334 188.581C650.316 188.263 649.33 187.754 648.376 187.039L624.048 170.264C622.554 169.246 621.202 168.292 619.978 167.433C618.753 166.575 617.609 165.796 616.559 165.128C615.494 164.46 614.428 163.935 613.363 163.538C612.298 163.14 611.137 162.87 609.881 162.711V187.866H590.752V186.323L590.721 186.355Z" fill="black"/>
<path d="M677.634 186.355C679.923 186.196 681.513 185.624 682.42 184.638C683.326 183.652 683.771 182.014 683.771 179.74V113.371C683.771 111.082 683.31 109.46 682.42 108.474C681.513 107.488 679.923 106.916 677.634 106.757V105.214H696.762V160.962H719.913L744.241 177.737C746.054 178.914 747.58 179.502 748.852 179.502C749.87 179.502 750.76 179.232 751.508 178.675C752.255 178.119 752.907 177.419 753.463 176.544L753.813 176.067C754.529 174.732 754.72 173.332 754.402 171.87C754.084 170.407 752.939 169.023 750.983 167.672L719.929 146.54V128.7H721.583V129.049C721.583 129.844 721.805 130.592 722.235 131.291C722.664 132.007 723.221 132.643 723.888 133.247C724.556 133.835 725.272 134.408 726.019 134.964C726.766 135.521 727.418 135.982 727.975 136.379L756.198 155.746C758.568 157.4 760.078 159.435 760.746 161.836C761.414 164.237 760.889 166.702 759.156 169.214L748.757 184.685C747.739 186.18 746.579 187.277 745.275 187.993C743.971 188.708 742.619 189.058 741.204 189.058C740.266 189.058 739.28 188.899 738.247 188.581C737.229 188.263 736.243 187.754 735.289 187.039L710.961 170.264C709.467 169.246 708.115 168.292 706.891 167.433C705.666 166.575 704.522 165.796 703.472 165.128C702.407 164.46 701.341 163.935 700.276 163.538C699.211 163.14 698.05 162.87 696.794 162.711V187.866H677.666V186.323L677.634 186.355Z" fill="black"/>
</g>
<defs>
<clipPath id="clip0_747_1967">
<rect width="761" height="293" fill="white"/>
</clipPath>
</defs>
</svg>
