<svg xmlns="http://www.w3.org/2000/svg" width="238" height="64" viewBox="0 0 476 128">
  <defs>
    <style>
      .cls-1 {
        fill: #241d16;
        fill-rule: evenodd;
      }
    </style>
  </defs>
  <path id="готово" class="cls-1" d="M31.831,55.759l16.74,10.26V99.5h11.88V59.863L29.671,41.071c-2.916-1.728-4.428-5.184-2.808-8.1a5.52,5.52,0,0,1,4.968-2.7,6.949,6.949,0,0,1,3.78,1.08L60.235,46.363H82.268L49.651,26.491a18.043,18.043,0,0,0-9.5-2.916c-5.616,0-10.692,3.132-14.04,8.856C20.815,40.963,22.975,50.467,31.831,55.759ZM88.207,23.9V69.476A18.3,18.3,0,0,0,96.631,84.6l24.408,14.9h33.589V53.923A18.3,18.3,0,0,0,146.2,38.8L121.8,23.9H88.207ZM138,47.119a10.156,10.156,0,0,1,4.752,8.532V99.5L104.839,76.28a10.156,10.156,0,0,1-4.752-8.532V23.9Zm20.41-23.22,23.976,14.58V99.5h11.881V45.823l14.58,8.856c3.672,2.268,4.212,4.86,4.212,8.856h0.432c3.456-8.748,2.592-17.928-6.264-23.22l-27-16.416H158.405Zm65.016,0V69.476a18.3,18.3,0,0,0,8.424,15.12l24.408,14.9h33.589V53.923a18.3,18.3,0,0,0-8.424-15.12L257.009,23.9H223.421Zm49.789,23.22a10.156,10.156,0,0,1,4.752,8.532V99.5L240.053,76.28a10.156,10.156,0,0,1-4.752-8.532V23.9ZM301.179,99.5H313.06V77.144l32.508,19.764a18.043,18.043,0,0,0,9.5,2.916c5.616,0,10.692-3.132,14.04-8.856,5.293-8.532,3.132-18.036-5.724-23.328a14.707,14.707,0,0,0,4.212-4.1c5.293-8.532,3.132-17.928-5.724-23.22l-27-16.416h-33.7V99.5Zm33.805-22.464H313.06V23.9L364.036,55c2.916,1.728,4.428,5.184,2.916,8.208a5,5,0,0,1-4.428,2.7,7.744,7.744,0,0,1-4-1.3L334.876,50.251H313.06l52.488,32.076c2.916,1.728,4.428,5.184,2.808,8.1a5.52,5.52,0,0,1-4.968,2.7,6.948,6.948,0,0,1-3.78-1.08ZM381.746,23.9V69.476A18.3,18.3,0,0,0,390.17,84.6l24.408,14.9h33.589V53.923a18.3,18.3,0,0,0-8.424-15.12L415.334,23.9H381.746Zm49.789,23.22a10.156,10.156,0,0,1,4.752,8.532V99.5L398.378,76.28a10.156,10.156,0,0,1-4.752-8.532V23.9Z"/>
</svg>
