<?xml version="1.0" standalone="no"?>
<!DOCTYPE svg PUBLIC "-//W3C//DTD SVG 20010904//EN"
 "http://www.w3.org/TR/2001/REC-SVG-20010904/DTD/svg10.dtd">
<svg version="1.0" xmlns="http://www.w3.org/2000/svg"
 width="848.000000pt" height="134.000000pt" viewBox="0 0 848.000000 134.000000"
 preserveAspectRatio="xMidYMid meet">

<g transform="translate(0.000000,134.000000) scale(0.100000,-0.100000)"
fill="#000000" stroke="none">
<path d="M2022 1287 c-18 -29 -32 -57 -32 -62 0 -17 69 58 79 87 17 48 -12 33
-47 -25z"/>
<path d="M2068 1282 c-18 -30 -40 -62 -48 -71 -62 -67 -97 -184 -74 -245 13
-33 24 -14 24 41 0 74 9 63 25 -31 13 -74 62 -181 133 -289 35 -52 22 -56 -23
-6 -29 33 -36 36 -30 18 4 -13 18 -43 31 -67 27 -49 29 -56 12 -46 -35 20 40
-47 94 -85 l63 -44 -40 43 c-42 46 -37 44 69 -32 l66 -47 0 314 0 315 70 0 70
0 0 -145 0 -145 33 0 c27 1 36 7 59 46 26 43 52 63 65 50 3 -3 -12 -25 -33
-48 l-39 -43 74 -3 c58 -2 85 2 122 18 26 11 54 20 63 20 35 0 22 21 -34 55
-48 29 -63 34 -79 26 -31 -17 -34 -13 -11 16 21 27 13 44 -13 26 -7 -4 -5 -1
5 9 10 9 14 18 7 20 -12 4 10 98 23 98 5 0 22 -10 38 -21 36 -27 59 -19 58 18
-1 32 24 87 55 121 30 32 42 27 17 -8 -12 -17 -23 -41 -24 -54 -1 -14 -8 -32
-15 -40 -11 -13 -10 -17 3 -22 9 -3 23 -1 32 6 10 9 18 10 26 2 7 -7 2 -15
-18 -26 -27 -14 -28 -15 -6 -16 25 0 72 27 72 41 0 5 -10 9 -22 9 -13 0 -31 7
-42 15 -21 16 -22 15 73 32 43 8 45 10 62 63 10 30 19 57 19 59 0 8 -77 -12
-97 -25 -18 -11 -21 -11 -17 -1 3 8 22 24 42 36 37 22 37 22 7 17 -24 -5 -27
-4 -12 4 13 9 15 15 7 30 -17 32 -41 50 -67 50 l-25 0 31 -42 c39 -53 40 -70
2 -29 -35 38 -67 42 -57 9 20 -71 20 -74 -26 -116 -23 -23 -47 -42 -53 -42 -5
0 -26 15 -46 33 -19 17 -57 50 -83 72 -27 22 -58 48 -69 58 -11 9 -26 17 -34
17 -7 0 -13 8 -13 18 0 16 -9 19 -56 21 -52 2 -55 1 -40 -14 18 -18 22 -45 6
-45 -5 0 -30 -15 -54 -32 -135 -101 -237 -171 -286 -195 -54 -27 -55 -29 -66
-86 -22 -111 -42 -90 -64 69 -9 60 -9 91 0 122 13 49 40 58 40 14 0 -16 6 -36
13 -46 11 -15 16 -11 42 44 31 65 95 132 148 156 30 13 27 14 -60 13 l-92 -2
-33 -55z"/>
<path d="M3410 1335 c0 -3 10 -25 21 -48 l22 -42 -23 20 -23 20 6 -23 c5 -23
5 -23 -13 -7 -18 16 -18 16 -13 -4 3 -11 12 -26 21 -33 13 -11 14 -11 7 2 -6
11 -5 12 4 4 7 -6 13 -23 15 -37 1 -14 11 -38 21 -54 18 -28 18 -28 -2 -10
-32 28 -43 21 -43 -28 0 -45 0 -45 34 -45 19 0 37 6 39 13 4 10 6 10 6 0 1 -7
8 -13 16 -13 13 0 14 4 5 20 -6 11 -9 24 -6 28 2 4 -6 28 -18 54 l-22 47 43
-30 c46 -32 54 -42 26 -32 -14 5 -16 3 -6 -7 7 -8 44 -15 90 -17 85 -4 113
-13 42 -13 -32 0 -40 -3 -29 -10 8 -5 47 -10 86 -10 l71 0 54 49 c56 51 99
111 79 111 -6 0 -38 -18 -70 -40 -33 -22 -72 -43 -88 -46 -31 -6 -198 30 -219
48 -15 12 -15 12 84 62 28 15 58 38 67 51 l16 25 -150 0 c-82 0 -150 -2 -150
-5z"/>
<path d="M3976 1325 c4 -8 8 -15 10 -15 2 0 4 7 4 15 0 8 -4 15 -10 15 -5 0
-7 -7 -4 -15z"/>
<path d="M4016 1295 c3 -27 12 -63 20 -80 14 -29 14 -29 8 20 -3 27 -12 63
-20 80 -14 29 -14 29 -8 -20z"/>
<path d="M4040 1335 c0 -1 27 -60 60 -131 65 -136 76 -190 25 -117 -40 56 -49
54 -25 -7 11 -27 16 -50 11 -50 -6 0 -13 9 -16 21 -4 11 -9 18 -12 15 -7 -7
-27 14 -51 53 l-19 31 -54 -59 c-58 -63 -119 -145 -119 -159 0 -9 124 -92 136
-92 3 0 20 11 37 24 43 33 79 40 122 26 27 -9 39 -9 49 -1 11 9 29 1 82 -39
37 -27 69 -48 72 -45 3 3 3 6 1 8 -2 2 -27 20 -56 41 -53 38 -103 90 -103 107
0 5 23 -9 52 -31 28 -23 64 -48 80 -56 l28 -15 0 39 c0 26 -7 45 -20 57 -11
10 -20 22 -20 27 0 4 9 8 20 8 16 0 20 7 20 30 0 27 3 30 33 30 42 1 106 31
138 66 36 39 92 129 112 182 l17 43 -300 -1 c-165 -1 -300 -3 -300 -5z m-15
-245 c-10 -17 -95 -71 -95 -61 0 5 19 23 42 40 42 31 65 40 53 21z m105 -111
c0 -7 -6 -4 -15 7 -19 25 -19 40 0 20 8 -8 15 -20 15 -27z"/>
<path d="M5070 1276 c0 -86 17 -167 39 -189 10 -11 34 -22 52 -26 27 -5 34
-13 42 -41 12 -48 20 -54 53 -37 45 23 72 58 88 112 18 57 7 90 -26 82 -20 -6
-20 -5 2 18 14 15 18 25 11 30 -6 3 -11 15 -11 27 0 17 3 18 15 8 12 -10 16
-9 21 5 8 19 -12 36 -31 29 -20 -8 -26 24 -7 35 13 8 7 10 -26 11 -39 0 -43
-2 -37 -20 4 -11 2 -20 -4 -20 -6 0 -11 6 -11 14 0 8 -4 17 -9 20 -5 4 -3 -17
5 -46 7 -29 11 -54 8 -57 -9 -9 -23 23 -30 67 -3 23 -10 42 -15 42 -5 0 -6
-15 -3 -32 10 -63 36 -118 65 -142 37 -32 40 -73 5 -82 -14 -3 -29 -3 -35 0
-22 14 -70 114 -76 161 -12 95 -12 95 -50 95 l-35 0 0 -64z m230 -27 c0 -6 -4
-7 -10 -4 -5 3 -10 1 -10 -4 0 -6 -4 -11 -10 -11 -14 0 -12 27 3 33 15 5 27
-1 27 -14z"/>
<path d="M5496 1327 c-22 -16 -15 -23 38 -31 38 -6 39 -6 24 16 -19 28 -38 33
-62 15z"/>
<path d="M6402 1333 c-19 -7 13 -41 56 -59 18 -7 31 -18 28 -23 -6 -9 49 -27
67 -23 4 1 7 -2 7 -7 0 -17 99 -3 127 17 37 26 68 61 61 68 -3 3 -31 -9 -61
-26 l-55 -31 -64 16 c-93 25 -97 29 -47 53 l44 22 -75 -1 c-41 0 -81 -3 -88
-6z"/>
<path d="M6786 1324 c-3 -9 -6 -23 -6 -32 1 -15 3 -14 15 2 17 22 20 46 6 46
-5 0 -12 -7 -15 -16z"/>
<path d="M3165 1300 c-4 -6 -23 -10 -43 -10 -32 -1 -72 -18 -72 -32 0 -4 34 1
128 18 12 3 22 8 22 13 0 13 -28 22 -35 11z"/>
<path d="M5390 1281 c-18 -13 -15 -14 48 -16 26 -1 79 -5 117 -10 39 -5 77 -7
86 -6 23 3 121 -43 143 -67 21 -24 61 -36 82 -24 13 7 12 11 -8 24 -13 8 -48
23 -78 33 -30 10 -68 25 -85 33 -16 8 -61 19 -100 23 -38 4 -97 10 -130 14
-36 3 -66 2 -75 -4z"/>
<path d="M3330 1255 c11 -14 10 -14 -13 -6 -17 7 -28 7 -32 1 -4 -7 -13 -6
-25 0 -43 23 -100 9 -100 -25 0 -12 -6 -28 -14 -34 -9 -8 -14 -29 -13 -57 2
-43 3 -45 42 -55 22 -5 68 -24 102 -42 47 -24 65 -29 74 -20 9 9 2 14 -30 24
-43 13 -55 29 -21 29 22 0 40 28 40 62 0 22 -5 33 -38 87 -12 20 -11 20 13 11
13 -5 35 -6 47 -1 l21 8 -24 16 c-29 21 -46 22 -29 2z"/>
<path d="M3972 1253 c-4 -10 -7 -28 -6 -41 1 -22 -14 -36 -71 -68 -11 -6 -20
-18 -20 -25 0 -16 -34 -67 -71 -106 -13 -14 -21 -29 -18 -34 3 -5 0 -9 -7 -9
-12 0 20 -29 32 -30 12 0 71 99 65 109 -3 5 23 40 59 79 55 59 65 76 65 106 0
38 -14 47 -28 19z"/>
<path d="M5375 1223 c3 -8 5 -18 5 -21 0 -4 51 -7 113 -7 101 0 121 -3 205
-32 51 -18 95 -33 97 -33 2 0 1 9 -2 19 -8 32 -78 53 -208 62 -66 5 -142 13
-168 17 -40 8 -47 7 -42 -5z"/>
<path d="M7759 1206 c7 -8 36 -33 65 -56 l54 -41 138 3 139 3 -63 53 -63 52
-141 0 c-120 0 -139 -2 -129 -14z"/>
<path d="M5476 1167 c-16 -12 -35 -40 -92 -142 -10 -16 -23 -57 -30 -90 -21
-101 -29 -115 -64 -115 -31 0 -62 24 -86 66 -11 19 -13 18 -85 -7 -41 -14 -73
-30 -72 -35 1 -5 13 -35 26 -66 l24 -57 27 15 c36 18 60 18 76 -1 7 -8 18 -15
25 -15 6 0 18 -11 25 -25 7 -14 19 -25 27 -25 7 0 13 -4 13 -10 0 -5 8 -10 18
-11 10 0 12 -3 5 -6 -7 -2 -13 -11 -13 -18 0 -19 -40 -56 -132 -121 l-78 -54
0 -120 0 -120 -129 0 c-125 0 -129 -1 -135 -22 l-7 -23 -16 22 c-14 20 -43 32
-43 18 0 -3 23 -50 50 -105 l50 -100 276 2 276 3 24 43 c22 39 44 93 61 145 4
13 0 17 -20 17 l-26 0 -3 194 c-3 174 -5 196 -22 215 -11 12 -27 21 -36 21 -9
0 -17 7 -17 15 0 8 3 12 7 10 4 -3 7 12 6 32 -1 34 2 38 29 43 l30 5 3 153 3
152 123 0 c67 0 126 3 129 6 9 9 -11 44 -37 66 -61 53 -150 74 -190 45z"/>
<path d="M5950 1100 l45 -42 -33 6 -34 6 47 -52 c25 -28 52 -63 60 -77 7 -14
28 -35 46 -45 l33 -19 -24 39 -24 39 24 -16 c14 -9 35 -31 47 -50 12 -19 45
-57 74 -86 43 -43 50 -55 40 -66 -6 -8 -11 -30 -10 -48 1 -20 -7 -49 -20 -71
l-22 -37 20 -13 c28 -17 26 -50 -3 -107 -19 -35 -27 -74 -36 -166 -7 -66 -22
-151 -35 -190 -12 -38 -25 -79 -29 -90 -4 -11 9 10 27 47 20 39 46 117 62 185
38 167 93 334 117 359 3 3 31 -6 62 -20 50 -22 59 -31 81 -78 41 -89 50 -146
35 -235 -6 -43 -16 -86 -21 -95 -6 -10 -7 -18 -5 -18 18 0 39 75 44 152 2 48
8 85 12 83 16 -10 21 47 6 64 -8 9 -17 38 -21 64 -5 33 -17 59 -36 80 -31 33
-36 47 -18 47 5 0 -9 25 -33 56 -44 56 -176 156 -213 160 -11 1 -24 3 -28 3
-5 1 -6 5 -2 10 3 6 -10 17 -30 27 -19 9 -35 19 -35 23 0 3 -16 24 -36 46 -20
22 -47 55 -62 73 -14 18 -46 47 -71 63 l-46 30 45 -41z m410 -335 c0 -3 -8 -2
-17 3 -34 17 -88 40 -111 47 -12 4 -20 11 -17 16 6 8 145 -55 145 -66z m0 -68
c22 -17 74 -87 65 -87 -4 0 -21 12 -38 26 -21 18 -37 24 -54 19 -24 -6 -29 7
-17 39 7 19 23 20 44 3z m-70 -24 c0 -10 -5 -25 -10 -33 -7 -11 -10 -7 -10 18
0 17 5 32 10 32 6 0 10 -8 10 -17z"/>
<path d="M2981 1081 c-14 -9 6 -13 98 -23 14 -2 26 -8 28 -14 4 -13 -59 -29
-147 -39 -62 -7 -90 -19 -75 -34 12 -11 184 19 238 42 43 18 46 31 14 51 -26
18 -136 29 -156 17z"/>
<path d="M190 773 c0 -249 2 -282 19 -318 30 -64 41 -72 324 -242 4 -2 7 29 7
69 l0 74 -94 57 c-131 80 -126 66 -126 381 l0 256 -65 0 -65 0 0 -277z"/>
<path d="M345 1037 c11 -8 101 -64 201 -125 99 -62 191 -123 205 -138 l24 -26
3 -269 3 -269 64 0 65 0 0 278 c-1 365 8 346 -219 486 l-125 76 -120 0 c-104
0 -118 -2 -101 -13z"/>
<path d="M1260 793 l1 -258 226 -140 c124 -77 242 -149 262 -159 86 -46 159
-39 210 19 40 46 43 73 6 49 -19 -13 -33 -14 -55 -8 -15 5 -139 77 -274 159
l-246 150 0 223 0 222 -65 0 -65 0 0 -257z"/>
<path d="M1415 1036 c11 -7 137 -84 280 -171 143 -87 268 -164 277 -172 9 -8
20 -31 25 -51 l10 -37 7 43 c4 23 11 42 14 42 4 0 22 -22 39 -48 27 -39 33
-43 33 -24 0 13 -4 20 -10 17 -5 -3 -10 0 -10 8 0 8 -9 25 -21 38 -29 33 -40
65 -45 125 -4 56 -33 138 -34 96 0 -12 7 -39 15 -59 20 -48 19 -50 -12 -16
-16 16 -101 72 -189 126 l-161 97 -119 0 c-103 0 -116 -2 -99 -14z"/>
<path d="M6550 798 c1 -265 7 -322 43 -376 21 -32 240 -178 300 -201 73 -28
163 -2 205 59 l22 33 0 -52 0 -51 70 0 70 0 0 420 0 420 -70 0 -70 0 0 -355
c0 -352 0 -354 -22 -375 -41 -38 -80 -28 -235 65 -100 60 -147 95 -158 115
-12 24 -15 77 -15 290 l0 260 -70 0 -70 0 0 -252z"/>
<path d="M7622 761 l3 -289 30 -43 c22 -32 67 -66 165 -128 120 -76 141 -85
192 -89 66 -5 126 22 158 73 l20 30 0 -52 0 -53 65 0 65 0 0 420 0 420 -65 0
-65 0 0 -350 0 -351 -25 -24 c-42 -43 -76 -35 -230 58 -76 45 -148 95 -159
110 -20 27 -21 43 -24 293 l-3 264 -65 0 -65 0 3 -289z"/>
<path d="M5590 916 c0 -68 -3 -131 -6 -140 -4 -12 0 -16 16 -16 17 0 21 4 15
18 -4 9 -10 36 -12 60 -5 36 -2 47 19 70 57 61 57 81 -1 115 l-31 18 0 -125z"/>
<path d="M5902 1007 c40 -32 108 -69 108 -58 0 20 -81 81 -108 81 l-27 -1 27
-22z"/>
<path d="M3340 975 c0 -14 29 -35 49 -35 18 0 12 29 -8 40 -27 14 -41 13 -41
-5z"/>
<path d="M3453 966 c9 -7 17 -20 17 -28 0 -8 3 -18 8 -22 4 -4 7 -19 7 -32 1
-20 -3 -24 -17 -21 -26 7 -22 -5 13 -39 28 -26 69 -92 69 -111 0 -4 -13 14
-29 39 -16 26 -39 51 -50 57 -29 16 -61 14 -61 -4 0 -9 -11 -20 -24 -24 -17
-7 -25 -20 -30 -51 -8 -49 1 -67 67 -140 95 -104 101 -127 68 -265 -11 -44
-17 -83 -15 -87 10 -15 44 13 65 53 29 58 35 126 14 174 -9 22 -27 79 -40 128
-18 67 -21 87 -10 87 23 0 73 -55 86 -96 14 -46 20 -278 7 -313 -7 -21 -7 -22
6 -12 13 11 14 8 6 -21 -6 -18 -10 -34 -10 -35 0 -1 15 -4 33 -8 64 -14 77
-29 77 -95 0 -57 -1 -60 -32 -77 l-33 -18 89 -3 c62 -2 92 1 97 9 6 10 20 10
63 -1 69 -16 81 -8 27 19 -48 25 -84 27 -105 6 -20 -21 -21 -20 -20 23 2 60 3
62 29 62 30 0 66 -17 156 -75 64 -41 70 -43 145 -43 61 -1 75 2 60 10 -17 9
-12 14 42 39 65 31 117 84 128 132 3 16 17 53 30 81 33 71 32 120 -3 143 -36
23 -44 35 -33 48 10 12 -2 72 -13 68 -4 -2 -11 -3 -17 -3 -5 0 -10 -6 -10 -14
0 -19 -60 -32 -70 -16 -5 8 -20 11 -39 8 -32 -5 -42 5 -15 16 8 3 13 10 10 15
-3 5 4 11 15 14 14 4 19 1 16 -7 -4 -9 8 -10 53 -3 50 8 59 13 65 34 12 49 -6
126 -42 180 -21 31 -32 56 -28 64 5 7 4 10 -2 6 -6 -4 -13 3 -16 15 -4 12 -9
20 -12 16 -3 -3 0 -17 6 -32 14 -31 5 -45 -19 -28 -34 24 -42 23 -126 -19 -67
-33 -86 -47 -86 -63 0 -12 -5 -39 -11 -61 l-11 -39 -14 39 c-7 22 -14 41 -14
43 0 1 -8 2 -19 2 -24 0 -38 -17 -81 -99 -19 -37 -45 -70 -57 -76 -20 -8 -23
-17 -23 -69 0 -54 4 -63 53 -135 60 -85 91 -140 83 -148 -3 -3 -30 9 -62 26
-44 26 -62 31 -82 24 -15 -4 -51 -7 -79 -5 l-53 3 -1 87 c-1 48 -4 77 -6 65
-2 -12 -11 -27 -19 -33 -12 -11 -13 -8 -9 16 2 16 7 59 10 97 4 37 11 67 16
67 13 0 11 68 -3 72 -6 2 -13 29 -14 58 -2 30 -8 56 -13 58 -16 5 -54 72 -46
80 4 4 15 -4 25 -18 11 -14 25 -32 32 -40 8 -9 13 -31 12 -49 -1 -18 2 -45 7
-59 6 -19 8 -4 6 51 0 42 -5 77 -10 77 -5 0 -3 8 4 18 13 15 12 16 -3 4 -24
-19 -34 -10 -53 49 -12 37 -20 47 -26 38 -6 -10 -9 -8 -9 9 0 12 -8 35 -17 49
-17 26 -17 27 0 20 10 -4 21 -7 23 -7 2 0 4 -9 4 -19 0 -11 5 -23 10 -26 6 -4
8 3 6 17 -3 13 -5 28 -5 33 -1 17 -59 46 -99 51 -33 3 -35 2 -19 -10z m850
-413 c-7 -2 -19 -2 -25 0 -7 3 -2 5 12 5 14 0 19 -2 13 -5z m-183 -85 c-5 -7
-19 -24 -30 -38 -16 -20 -19 -21 -13 -5 7 24 33 55 45 55 5 0 4 -6 -2 -12z
m185 -37 c6 -10 -115 -112 -184 -155 -26 -17 -43 -36 -47 -54 -3 -15 -7 -31
-8 -37 -7 -28 -29 46 -30 101 -1 52 -3 60 -15 51 -12 -10 -12 -9 0 11 8 12 17
22 22 22 4 0 5 -4 2 -10 -3 -5 -1 -10 4 -10 6 0 11 -8 11 -18 0 -35 12 -31 44
16 43 64 87 92 147 92 26 0 50 -4 54 -9z m-277 -217 c-2 -18 -2 -31 1 -29 4 4
71 -109 71 -120 0 -2 -7 -1 -17 2 -12 5 -14 3 -8 -8 4 -8 -2 -4 -15 7 -12 12
-30 44 -39 72 -18 51 -17 127 1 116 5 -4 8 -21 6 -40z m-248 -178 c0 -3 -4 -8
-10 -11 -5 -3 -10 -1 -10 4 0 6 5 11 10 11 6 0 10 -2 10 -4z"/>
<path d="M3051 957 c-26 -9 -35 -19 -38 -38 -3 -22 3 -31 33 -48 30 -18 57
-23 140 -26 71 -3 104 -1 104 7 0 22 -86 96 -125 107 -49 14 -71 13 -114 -2z"/>
<path d="M3206 963 c-6 -6 104 -53 126 -53 21 0 2 44 -22 51 -34 9 -95 11
-104 2z"/>
<path d="M5820 867 c0 -13 -7 -32 -15 -43 -18 -24 -19 -64 -2 -64 7 0 33 -13
58 -28 85 -54 164 -96 152 -81 -7 8 -15 44 -19 81 l-7 66 -76 46 c-42 25 -80
46 -84 46 -4 0 -7 -10 -7 -23z"/>
<path d="M4480 845 c0 -19 4 -35 8 -35 16 0 92 -72 92 -87 0 -10 -15 0 -40 26
-22 22 -45 41 -50 41 -20 0 -9 -94 16 -132 30 -47 30 -51 -1 -46 -14 3 -25 2
-25 -1 0 -9 74 -81 83 -81 11 0 8 39 -3 61 -14 26 5 25 27 -1 23 -27 31 -25
35 8 l3 27 23 -35 c12 -19 22 -44 22 -55 -1 -33 54 -184 68 -190 17 -6 10 30
-23 128 -26 77 -20 90 35 67 28 -12 33 -10 68 22 21 19 59 44 85 57 42 21 47
26 47 57 0 52 -25 102 -53 109 -24 7 -100 -25 -157 -65 -14 -10 -42 -25 -63
-34 l-38 -15 6 33 c10 50 -17 91 -87 137 -34 21 -65 39 -70 39 -4 0 -8 -16 -8
-35z m53 -145 c36 -22 59 -74 28 -63 -17 6 -44 35 -62 66 -13 22 -8 22 34 -3z"/>
<path d="M4320 781 c0 -5 5 -13 10 -16 6 -3 10 -2 10 4 0 5 -4 13 -10 16 -5 3
-10 2 -10 -4z"/>
<path d="M1410 745 c0 -2 75 -49 168 -105 l167 -100 110 0 c93 0 107 2 95 14
-8 7 -84 54 -168 105 l-153 91 -110 0 c-60 0 -109 -2 -109 -5z"/>
<path d="M2510 709 c0 -41 0 -42 20 -24 11 10 20 23 20 29 0 6 -9 17 -20 24
-19 11 -20 10 -20 -29z"/>
<path d="M2955 727 c-15 -12 -37 -29 -48 -38 -19 -15 -17 -17 57 -62 95 -58
120 -65 146 -42 44 39 18 84 -78 137 l-49 27 -28 -22z"/>
<path d="M5590 716 c0 -21 5 -26 26 -26 30 0 28 16 -4 38 -21 14 -22 13 -22
-12z"/>
<path d="M6098 680 c4 -45 2 -51 -19 -58 -24 -9 -23 -9 8 -26 42 -21 76 -20
96 2 20 22 21 51 4 72 -11 15 -79 60 -89 60 -3 0 -3 -22 0 -50z"/>
<path d="M2546 675 c-11 -19 -23 -35 -28 -35 -4 0 -8 -10 -7 -22 0 -16 2 -18
6 -8 15 38 43 33 43 -8 0 -27 15 -61 23 -52 10 13 57 104 57 111 0 9 -58 49
-70 49 -3 0 -14 -16 -24 -35z"/>
<path d="M3170 680 c0 -34 -22 -83 -50 -115 -18 -19 -18 -21 1 -44 11 -13 21
-22 22 -20 29 44 55 193 36 205 -5 3 -9 -9 -9 -26z"/>
<path d="M4480 650 c0 -5 5 -10 11 -10 5 0 7 5 4 10 -3 6 -8 10 -11 10 -2 0
-4 -4 -4 -10z"/>
<path d="M5751 603 c-16 -14 -21 -31 -23 -80 l-2 -62 77 -100 c91 -118 106
-162 88 -266 -7 -36 -14 -72 -17 -80 -5 -12 2 -15 28 -15 32 0 36 3 46 39 18
58 14 133 -8 184 -24 53 -73 247 -65 255 2 3 13 -2 23 -11 10 -10 24 -17 30
-17 32 0 86 -190 84 -298 0 -40 -3 -88 -7 -105 -5 -29 -5 -30 7 -12 7 12 15
67 18 130 5 100 7 107 17 75 l11 -35 1 33 c2 62 41 127 54 90 2 -7 7 -11 10
-8 4 3 0 28 -8 55 -21 67 -20 89 3 80 9 -4 27 -10 40 -12 21 -5 22 -2 22 51 0
31 -2 56 -5 56 -2 0 -21 -11 -41 -25 -27 -18 -50 -25 -87 -25 l-50 0 6 -46 c6
-57 -8 -45 -20 16 -7 35 -13 45 -28 45 -11 0 -28 10 -38 22 -18 22 -116 83
-135 83 -5 0 -19 -8 -31 -17z m319 -183 c8 -16 8 -28 -2 -50 -15 -35 -28 -21
-28 33 0 41 13 48 30 17z"/>
<path d="M2731 553 c-18 -14 -56 -38 -84 -52 -50 -25 -52 -29 -69 -90 -26 -95
-34 -95 -54 -3 l-12 57 -1 -67 c-1 -64 2 -73 54 -167 30 -55 55 -105 55 -113
0 -7 -16 4 -35 24 -36 39 -45 33 -20 -12 21 -37 17 -49 -6 -20 -12 14 -24 23
-27 22 -3 -2 -18 15 -33 39 -16 23 -29 38 -29 33 0 -6 -27 -10 -59 -10 -33 0
-57 4 -55 8 10 16 -49 8 -74 -11 -15 -10 -47 -28 -70 -40 -24 -12 -42 -24 -40
-26 1 -1 35 5 73 15 76 20 240 27 250 10 4 -6 -5 -10 -19 -10 -16 0 -26 -6
-26 -14 0 -8 -4 -17 -8 -20 -13 -8 -185 -36 -190 -31 -3 2 1 11 8 20 10 12 10
15 -1 15 -32 0 -143 -31 -180 -51 -60 -30 -56 -18 8 24 65 43 44 50 -31 10
-64 -35 -81 -49 -63 -56 6 -3 2 -6 -9 -6 -12 -1 -28 -9 -35 -18 -11 -15 -11
-16 1 -5 17 14 44 16 35 2 -10 -16 191 -12 302 6 54 8 121 25 150 36 51 20 92
21 105 4 9 -14 -22 -35 -52 -36 -14 -1 -34 -5 -45 -10 -13 -6 21 -9 94 -9 101
-1 112 1 101 14 -21 25 -3 29 26 6 23 -18 39 -21 123 -20 l96 1 -50 13 c-28 6
-60 17 -73 24 -24 13 -29 31 -8 31 7 0 25 9 38 20 14 10 49 28 79 40 59 22 77
36 127 93 30 35 32 43 32 112 0 68 -3 77 -27 104 -29 30 -208 141 -227 141 -6
0 -26 -12 -45 -27z m-141 -500 c0 -13 -3 -13 -15 -3 -8 7 -15 16 -15 21 0 5 7
6 15 3 8 -4 15 -13 15 -21z"/>
<path d="M4610 532 c0 -17 41 -127 51 -137 12 -11 4 48 -15 104 -10 32 -36 55
-36 33z"/>
<path d="M4490 520 c0 -5 5 -10 11 -10 5 0 7 5 4 10 -3 6 -8 10 -11 10 -2 0
-4 -4 -4 -10z"/>
<path d="M4555 460 c3 -5 16 -15 28 -21 22 -12 22 -12 3 10 -19 21 -43 30 -31
11z"/>
<path d="M6336 371 c-38 -42 -58 -149 -36 -191 13 -24 61 -41 83 -28 20 11 52
70 61 114 12 57 -30 124 -77 124 -8 0 -22 -9 -31 -19z"/>
<path d="M4896 343 c-45 -11 -65 -25 -66 -45 0 -11 109 -82 116 -76 3 3 4 34
2 69 l-3 64 -49 -12z"/>
<path d="M4560 280 c20 -28 22 -39 16 -101 -6 -58 -5 -68 7 -63 48 18 29 156
-25 185 -21 11 -21 11 2 -21z"/>
<path d="M6090 265 c-10 -12 -15 -43 -16 -89 -2 -74 -14 -117 -39 -142 -19
-19 -19 -34 -1 -34 8 0 18 9 21 20 8 25 25 26 26 3 0 -10 7 6 15 35 9 33 14
87 12 139 -3 78 -4 84 -18 68z"/>
<path d="M3517 214 c-9 -13 -17 -26 -17 -30 0 -4 -10 -21 -23 -38 -13 -17 -27
-38 -32 -46 -6 -12 -5 -13 6 -2 22 21 30 13 13 -13 -9 -14 -13 -25 -9 -25 4 0
2 -7 -5 -15 -7 -9 -10 -18 -6 -22 8 -9 113 105 120 130 3 14 -4 10 -24 -14
-33 -38 -39 -29 -12 16 27 45 31 59 18 71 -9 8 -16 5 -29 -12z"/>
<path d="M4657 220 c3 -11 9 -22 13 -25 5 -3 6 4 3 15 -3 11 -9 22 -13 25 -5
3 -6 -4 -3 -15z"/>
<path d="M6499 176 c-11 -26 -18 -50 -15 -53 3 -4 15 15 27 41 11 26 18 50 15
53 -3 4 -15 -15 -27 -41z"/>
<path d="M4715 193 c4 -10 15 -46 26 -80 11 -34 24 -65 29 -68 12 -8 12 -2 -1
55 -13 55 -38 110 -51 110 -6 0 -7 -8 -3 -17z"/>
<path d="M4654 168 c-3 -5 -9 -6 -14 -3 -16 10 11 -66 31 -86 21 -21 26 -45 7
-33 -8 5 -9 2 -5 -10 4 -10 7 -22 7 -27 0 -5 7 -9 15 -9 10 0 13 8 9 28 -18
101 -22 127 -18 137 5 13 -24 16 -32 3z"/>
<path d="M3301 69 c-124 -67 -125 -69 -55 -69 56 0 62 2 95 38 19 20 41 45 48
55 22 28 -6 21 -88 -24z"/>
<path d="M6423 91 c-14 -12 -47 -20 -94 -25 -74 -7 -92 -15 -110 -48 -9 -16
-5 -18 30 -18 34 0 43 5 55 28 l15 27 1 -27 c0 -23 4 -28 25 -28 14 0 25 5 25
10 0 6 5 10 11 10 5 0 7 -5 4 -10 -3 -6 1 -10 9 -10 14 0 14 3 4 21 -11 17
-10 22 3 29 14 8 55 61 47 60 -2 -1 -13 -9 -25 -19z"/>
<path d="M4578 78 c-24 -37 -31 -78 -14 -78 8 0 18 9 21 20 3 11 12 20 18 20
8 0 7 3 -2 9 -10 7 -11 13 -2 30 16 28 -3 27 -21 -1z"/>
<path d="M6436 61 c-10 -11 -16 -25 -15 -30 2 -6 12 3 21 19 20 35 18 38 -6
11z"/>
<path d="M4730 40 c0 -8 5 -22 10 -30 9 -13 10 -13 10 0 0 8 -5 22 -10 30 -9
13 -10 13 -10 0z"/>
<path d="M4478 24 c-34 -18 -35 -24 -3 -24 14 0 29 8 35 20 13 24 5 25 -32 4z"/>
</g>
</svg>
