<?xml version="1.0" standalone="no"?>
<!DOCTYPE svg PUBLIC "-//W3C//DTD SVG 20010904//EN"
 "http://www.w3.org/TR/2001/REC-SVG-20010904/DTD/svg10.dtd">
<svg version="1.0" xmlns="http://www.w3.org/2000/svg"
 width="616.000000pt" height="102.000000pt" viewBox="0 0 616.000000 102.000000"
 preserveAspectRatio="xMidYMid meet">

<g transform="translate(0.000000,102.000000) scale(0.100000,-0.100000)"
fill="#000000" stroke="none">
<path d="M130 560 l0 -280 45 0 45 0 0 238 c0 254 1 262 50 262 35 0 211 -109
227 -140 9 -17 13 -78 13 -192 l0 -168 40 0 40 0 0 190 c0 148 -3 197 -15 219
-17 34 -183 140 -231 148 -40 7 -89 -12 -109 -41 -14 -20 -15 -19 -15 12 0 31
-1 32 -45 32 l-45 0 0 -280z"/>
<path d="M720 560 l0 -280 45 0 45 0 0 276 c0 220 3 275 13 271 21 -8 329
-197 365 -224 38 -29 42 -59 8 -75 -22 -9 -36 -4 -125 51 l-99 62 -78 -3 -78
-3 125 -76 c143 -87 173 -97 221 -74 45 22 70 60 76 114 6 63 -13 84 -153 170
l-115 71 -125 0 -125 0 0 -280z"/>
<path d="M1340 649 c0 -229 -4 -220 139 -309 l99 -61 77 3 76 3 -144 88 c-92
56 -149 98 -156 113 -7 15 -11 89 -11 189 l0 165 -40 0 -40 0 0 -191z"/>
<path d="M1445 827 c11 -8 77 -49 148 -91 70 -43 132 -86 137 -96 6 -10 10
-95 10 -189 l0 -171 45 0 45 0 0 175 c0 236 0 236 -160 333 -84 51 -87 52
-165 52 -69 0 -77 -2 -60 -13z"/>
<path d="M1948 811 l-32 -28 31 4 c24 4 51 -8 129 -56 98 -60 100 -61 174 -61
91 0 91 1 -74 99 -139 83 -175 90 -228 42z"/>
<path d="M2430 560 l0 -280 45 0 45 0 0 276 c0 220 3 275 13 271 21 -8 329
-197 365 -224 38 -29 42 -59 8 -75 -22 -9 -36 -4 -125 51 l-99 62 -78 -3 -78
-3 125 -76 c143 -87 173 -97 221 -74 45 22 70 60 76 114 6 63 -13 84 -153 170
l-116 71 -124 0 -125 0 0 -280z"/>
<path d="M3050 665 c0 -136 3 -183 15 -204 12 -24 117 -97 258 -178 4 -2 7 18
7 46 l0 50 -84 50 c-46 28 -89 58 -96 66 -15 19 -27 125 -14 125 5 0 49 -25
99 -55 89 -55 90 -55 169 -55 l80 0 -97 60 -98 60 -79 0 -80 0 0 105 0 105
-40 0 -40 0 0 -175z"/>
<path d="M3155 827 c11 -8 82 -51 158 -97 76 -46 147 -95 158 -108 17 -22 19
-42 19 -183 l0 -159 46 0 46 0 -4 178 c-3 153 -6 181 -22 205 -10 15 -73 61
-140 102 l-121 75 -80 0 c-69 0 -77 -2 -60 -13z"/>
<path d="M3850 791 l0 -50 126 -77 c69 -42 128 -84 131 -92 8 -20 -10 -46 -35
-50 -12 -2 -82 35 -174 91 -84 52 -164 99 -176 106 l-22 12 0 -226 0 -225 45
0 45 0 0 150 0 149 82 -49 c44 -27 98 -52 120 -55 l38 -7 0 -94 0 -94 45 0 45
0 0 145 c0 80 2 145 5 145 2 0 38 -21 80 -46 46 -28 88 -46 110 -47 l35 -2 0
-97 0 -98 44 0 43 0 5 178 c4 135 2 183 -8 204 -13 25 -227 168 -253 168 -6 0
-11 -18 -11 -43 l0 -44 122 -74 c66 -41 126 -82 132 -91 14 -22 -2 -52 -30
-56 -15 -2 -256 139 -531 311 -10 6 -13 -4 -13 -42z"/>
<path d="M4732 788 l3 -51 120 -74 c113 -69 120 -75 120 -106 0 -56 -30 -48
-198 54 -83 51 -162 99 -174 107 l-23 14 0 -226 0 -226 45 0 45 0 0 145 c0 80
2 145 5 145 3 0 41 -20 83 -45 43 -25 93 -47 110 -48 l32 -2 0 -97 0 -98 45 0
45 0 0 145 c0 80 4 145 9 145 5 0 42 -21 83 -46 48 -29 88 -46 111 -47 l37 -2
0 -97 0 -98 44 0 44 0 4 173 c3 119 1 182 -8 203 -9 23 -37 46 -115 94 -57 35
-114 70 -126 78 -23 14 -23 14 -23 -36 l0 -50 122 -75 c132 -80 149 -97 132
-124 -21 -34 -50 -25 -180 55 -71 43 -189 116 -262 160 l-133 82 3 -52z"/>
<path d="M5442 663 c3 -164 5 -180 25 -208 20 -29 229 -165 253 -165 5 0 10
20 10 44 l0 44 -80 47 c-121 71 -120 68 -120 256 l0 159 -46 0 -46 0 4 -177z"/>
<path d="M5590 805 c30 -19 104 -65 165 -102 62 -39 115 -79 122 -93 9 -17 13
-75 13 -177 l0 -153 40 0 40 0 0 175 c0 135 -3 183 -15 204 -9 19 -57 55 -138
105 l-125 76 -78 0 -79 -1 55 -34z"/>
<path d="M1907 757 c-13 -34 -7 -92 12 -116 10 -13 49 -42 87 -66 l69 -42 3
-126 3 -127 44 0 45 0 0 148 0 147 -122 75 c-92 56 -124 81 -128 100 -5 22 -7
23 -13 7z"/>
<path d="M5546 621 c5 -5 47 -32 93 -60 84 -52 84 -52 160 -49 l76 3 -95 58
c-94 56 -98 57 -170 57 -43 0 -70 -4 -64 -9z"/>
</g>
</svg>
