<svg width="1424" height="284" viewBox="0 0 1424 284" fill="none" xmlns="http://www.w3.org/2000/svg">
<g clip-path="url(#clip0_287_1370)">
<path d="M125.786 0L226.579 61.2363C259.628 80.9755 262.87 115.22 249.95 147.844H248.354C248.354 132.891 246.334 123.27 232.615 114.821L44.348 0V149.539L205.602 247.762C211.568 251.856 218.552 254.22 225.781 254.591C233.039 254.591 240.297 251.376 245.934 242.528H247.955C241.096 271.513 221.341 284.125 199.541 284.125C186.657 284.015 174.07 280.247 163.25 273.258L0 171.97V0H125.786Z" fill="black"/>
<path d="M337.449 0V98.2971H418.487L516.462 158.312C520.935 160.687 525.914 161.952 530.979 162.001C534.419 162.102 537.82 161.252 540.808 159.546C543.796 157.84 546.255 155.343 547.915 152.331C553.552 141.04 547.915 128.155 537.015 121.7L419.285 49.5473V0L529.033 66.869C562.082 87.0069 570.163 121.7 550.409 153.477C545.946 159.756 540.294 165.099 533.772 169.204C542.025 175.428 548.748 183.452 553.429 192.664C558.11 201.876 560.626 212.034 560.785 222.365V282.006H516.462V229.294C516.348 222.784 514.632 216.402 511.465 210.713C508.298 205.023 503.778 200.2 498.304 196.669L337.449 98.2971V282.006H293.101V0H337.449Z" fill="black"/>
<path d="M720.468 0L811.583 55.6037C821.079 61.6747 828.923 70.0001 834.416 79.8372C839.908 89.6743 842.878 100.717 843.061 111.98V282.006H717.649L626.534 226.402C617.04 220.325 609.2 211.994 603.712 202.152C598.224 192.311 595.259 181.266 595.081 170.001V0H720.468ZM639.429 0V163.546C639.468 169.913 641.114 176.168 644.213 181.731C647.313 187.294 651.767 191.986 657.163 195.373L798.688 282.006V118.435C798.644 112.066 796.994 105.811 793.889 100.248C790.785 94.6849 786.328 89.9938 780.929 86.6082L639.429 0Z" fill="black"/>
<path d="M885.464 282.006V0H1011.25L1117.68 64.8004C1150.75 84.5395 1158.81 120.005 1139.06 151.832C1126.58 173.166 1107.6 184.855 1086.68 184.855C1074.06 184.627 1061.76 180.862 1051.18 173.989L929.712 100.316V282.006H885.464ZM929.712 0V99.9172H1011.55L1103.46 155.895C1107.68 158.567 1112.58 159.969 1117.58 159.932C1121.28 160.09 1124.96 159.248 1128.23 157.494C1131.49 155.739 1134.23 153.138 1136.14 149.963C1142.17 139.072 1136.54 126.186 1125.64 119.756L929.712 0Z" fill="black"/>
<path d="M1301.43 0L1392.55 55.6037C1402.04 61.6743 1409.88 70.0003 1415.37 79.8379C1420.86 89.6755 1423.82 100.718 1424 111.98V282.006H1298.61L1207.5 226.402C1198 220.325 1190.16 211.994 1184.68 202.152C1179.19 192.311 1176.22 181.266 1176.04 170.001V0H1301.43ZM1220.39 0V163.546C1220.43 169.913 1222.08 176.168 1225.18 181.731C1228.28 187.294 1232.73 191.986 1238.13 195.373L1379.65 282.006V118.435C1379.6 112.064 1377.95 105.808 1374.84 100.246C1371.73 94.6827 1367.27 89.9925 1361.87 86.6082L1220.39 0Z" fill="black"/>
</g>
<defs>
<clipPath id="clip0_287_1370">
<rect width="1424" height="284" fill="white"/>
</clipPath>
</defs>
</svg>
