<?xml version="1.0" encoding="UTF-8"?>
<svg id="_Слой_1" data-name="Слой 1" xmlns="http://www.w3.org/2000/svg" viewBox="0 0 1389.68 232.06">
  <path d="M38,134.31V35H110.18l48.04,29.88c10.8,6.67,17.93,19.77,17.93,32.41v98.62h-25.29V101.2c0-7.36-4.14-14.71-10.34-18.62L63.29,35v95.4c0,7.36,4.37,14.71,10.57,18.62l30.8,18.85v28.04l-48.73-29.42c-10.8-6.67-17.93-19.54-17.93-32.18Z"/>
  <path d="M196.85,35h71.72l57.47,34.94c18.85,11.26,20.69,30.8,13.33,49.42h-.92c0-8.51-1.15-14.02-8.96-18.85L222.13,35v56.78h44.37l67.12,40.46h-44.83l-66.66-40.46v28.5l91.95,56.09c3.68,2.3,7.59,3.91,11.49,3.91,4.14,0,8.28-1.84,11.49-6.9h1.15c-3.91,16.55-15.17,23.68-27.58,23.68-6.9,0-14.25-2.07-20.69-6.21l-93.1-57.7V35Z"/>
  <path d="M394.31,35l57.47,34.94c18.85,11.26,20.69,30.8,13.33,49.42h-.92c0-8.51-1.15-14.02-8.96-18.85l-31.03-18.85v114.25h-25.29V66.03l-51.03-31.03h46.43Z"/>
  <path d="M557.75,35l51.95,31.72c10.8,6.67,17.93,19.54,17.93,32.18v97.01h-71.49l-51.95-31.72c-10.8-6.67-17.93-19.54-17.93-32.18V35h71.49Zm-46.2,0v93.33c0,7.13,3.91,14.48,10.11,18.16l80.69,49.42V102.58c0-7.13-3.91-14.48-10.11-18.16l-80.69-49.42Z"/>
  <path d="M708.09,128.1c0-10.11,2.07-17.7,5.98-23.68,5.98-10.34,16.55-13.33,25.98-13.33h22.99c22.53,13.79,37.24,22.76,57.24,34.94l4.83,2.99c2.53,1.61,5.29,2.3,8.05,2.3,4.14,0,8.05-1.61,10.34-5.29,2.99-6.21-.23-13.33-6.21-17.01l-121.37-74.02h46.43l70.34,42.76c18.62,11.26,23.45,30.8,12.64,48.96-5.98,10.34-16.55,13.33-25.98,13.33h-22.99c-22.53-13.79-37.24-22.76-57.24-34.94l-4.83-2.99c-2.53-1.61-5.29-2.3-8.05-2.3-4.37,0-8.28,1.84-10.57,5.75-3.45,6.21-.23,13.56,5.98,17.24l119.76,73.1h-46.43l-86.89-52.64v-15.17Z"/>
  <path d="M871.76,35h71.49l63.21,38.62c10.8,6.67,17.93,19.54,17.93,32.18v90.11h-71.49l-63.21-38.62c-10.8-6.67-17.93-19.54-17.93-32.18V35Zm25.29,86.2c0,7.36,4.14,14.71,10.34,18.62l91.72,56.09V109.71c0-7.36-4.14-14.71-10.34-18.62l-91.72-56.09V121.2Zm23.45-8.74v-28.96l55.17,33.33v29.42l-55.17-33.79Z"/>
  <path d="M1045.09,128.1c0-10.11,2.07-17.7,5.98-23.68,5.98-10.34,16.55-13.33,25.98-13.33h22.99c22.53,13.79,37.24,22.76,57.24,34.94l4.83,2.99c2.53,1.61,5.29,2.3,8.05,2.3,4.14,0,8.05-1.61,10.34-5.29,2.99-6.21-.23-13.33-6.21-17.01l-121.37-74.02h46.43l70.34,42.76c18.62,11.26,23.45,30.8,12.64,48.96-5.98,10.34-16.55,13.33-25.98,13.33h-22.99c-22.53-13.79-37.24-22.76-57.24-34.94l-4.83-2.99c-2.53-1.61-5.29-2.3-8.05-2.3-4.37,0-8.28,1.84-10.57,5.75-3.45,6.21-.23,13.56,5.98,17.24l119.76,73.1h-46.43l-86.89-52.64v-15.17Z"/>
  <path d="M1208.76,128.1c0-10.11,2.07-17.7,5.98-23.68,5.98-10.34,16.55-13.33,25.98-13.33h22.99c22.53,13.79,37.24,22.76,57.24,34.94l4.83,2.99c2.53,1.61,5.29,2.3,8.05,2.3,4.14,0,8.05-1.61,10.34-5.29,2.99-6.21-.23-13.33-6.21-17.01l-121.37-74.02h46.43l70.34,42.76c18.62,11.26,23.45,30.8,12.64,48.96-5.98,10.34-16.55,13.33-25.98,13.33h-22.99c-22.53-13.79-37.24-22.76-57.24-34.94l-4.83-2.99c-2.53-1.61-5.29-2.3-8.05-2.3-4.37,0-8.28,1.84-10.57,5.75-3.45,6.21-.23,13.56,5.98,17.24l119.76,73.1h-46.43l-86.89-52.64v-15.17Z"/>
</svg>